<svg xmlns="http://www.w3.org/2000/svg"><symbol id="ico_angular" viewBox="0 0 250 250"><path fill="#DD0031" d="M125 30L31.9 63.2l14.2 123.1L125 230l78.9-43.7 14.2-123.1z"/><path fill="#C3002F" d="M125 30v200.1-.1l78.9-43.7 14.2-123.1L125 30z"/><path fill="#FFF" d="M125 52.1L66.8 182.6h21.7l11.7-29.2h49.4l11.7 29.2H183L125 52.1zm17 83.3h-34l17-40.9 17 40.9z"/></symbol><symbol id="ico_facebook" viewBox="0 0 96.124 96.123"><path d="M72.089.02L59.624 0C45.62 0 36.57 9.285 36.57 23.656v10.907H24.037a1.96 1.96 0 0 0-1.96 1.961v15.803a1.96 1.96 0 0 0 1.96 1.96H36.57v39.876a1.96 1.96 0 0 0 1.96 1.96h16.352a1.96 1.96 0 0 0 1.96-1.96V54.287h14.654a1.96 1.96 0 0 0 1.96-1.96l.006-15.803a1.963 1.963 0 0 0-1.961-1.961H56.842v-9.246c0-4.444 1.059-6.7 6.848-6.7l8.397-.003a1.96 1.96 0 0 0 1.959-1.96V1.98A1.96 1.96 0 0 0 72.089.02z"/></symbol><symbol id="ico_google-plus" viewBox="0 0 491.858 491.858"><path d="M377.472 224.957H201.319v58.718H308.79c-16.032 51.048-63.714 88.077-120.055 88.077-69.492 0-125.823-56.335-125.823-125.824 0-69.492 56.333-125.823 125.823-125.823 34.994 0 66.645 14.289 89.452 37.346l42.622-46.328c-34.04-33.355-80.65-53.929-132.074-53.929C84.5 57.193 0 141.693 0 245.928s84.5 188.737 188.736 188.737c91.307 0 171.248-64.844 188.737-150.989v-58.718l-.001-.001zm114.386-.1h-36.031v-36.031h-30.886v36.031H388.91v30.883h36.031v36.032h30.886V255.74h36.031z"/></symbol><symbol id="ico_ionic" viewBox="0 0 512 512"><path fill="#2c90ff" d="M425.5 135.4c4.7-5.9 7.5-13.5 7.5-21.6 0-19.2-15.6-34.8-34.8-34.8-8.2 0-15.7 2.8-21.6 7.5C342.6 62.3 300.9 48 256 48 141.1 48 48 141.1 48 256s93.1 208 208 208 208-93.1 208-208c0-44.9-14.3-86.6-38.5-120.6zm-33.7 256.4c-17.6 17.6-38.2 31.5-61.1 41.2-23.7 10-48.8 15.1-74.8 15.1-25.9 0-51.1-5.1-74.8-15.1-22.9-9.7-43.4-23.5-61.1-41.2-17.6-17.6-31.5-38.2-41.2-61.1-10-23.7-15.1-48.8-15.1-74.8 0-25.9 5.1-51.1 15.1-74.8 9.7-22.9 23.5-43.4 41.2-61.1s38.2-31.5 61.1-41.2c23.7-10 48.8-15.1 74.8-15.1 25.9 0 51.1 5.1 74.8 15.1 12.7 5.4 24.7 12.1 35.9 20-2.1 4.5-3.3 9.5-3.3 14.9 0 19.2 15.6 34.8 34.8 34.8 5.3 0 10.3-1.2 14.9-3.3 7.9 11.2 14.6 23.2 20 35.9 10 23.7 15.1 48.8 15.1 74.8 0 25.9-5.1 51.1-15.1 74.8-9.7 22.9-23.5 43.5-41.2 61.1z"/><circle fill="#2c90ff" cx="256" cy="256" r="96.1"/></symbol><symbol id="ico_lavarel" viewBox="0 0 84.1 57.6"><path fill="#FB503B" d="M83.8 26.9c-.6-.6-8.3-10.3-9.6-11.9-1.4-1.6-2-1.3-2.9-1.2s-10.6 1.8-11.7 1.9c-1.1.2-1.8.6-1.1 1.6.6.9 7 9.9 8.4 12l-25.5 6.1L21.2 1.5c-.8-1.2-1-1.6-2.8-1.5C16.6.1 2.5 1.3 1.5 1.3c-1 .1-2.1.5-1.1 2.9S17.4 41 17.8 42c.4 1 1.6 2.6 4.3 2 2.8-.7 12.4-3.2 17.7-4.6 2.8 5 8.4 15.2 9.5 16.7 1.4 2 2.4 1.6 4.5 1 1.7-.5 26.2-9.3 27.3-9.8 1.1-.5 1.8-.8 1-1.9-.6-.8-7-9.5-10.4-14 2.3-.6 10.6-2.8 11.5-3.1 1-.3 1.2-.8.6-1.4zm-46.3 9.5c-.3.1-14.6 3.5-15.3 3.7-.8.2-.8.1-.8-.2-.2-.3-17-35.1-17.3-35.5-.2-.4-.2-.8 0-.8S17.6 2.4 18 2.4c.5 0 .4.1.6.4 0 0 18.7 32.3 19 32.8.4.5.2.7-.1.8zm40.2 7.5c.2.4.5.6-.3.8-.7.3-24.1 8.2-24.6 8.4-.5.2-.8.3-1.4-.6l-8.2-14L68.1 32c.6-.2.8-.3 1.2.3.4.7 8.2 11.3 8.4 11.6zm1.6-17.6c-.6.1-9.7 2.4-9.7 2.4l-7.5-10.2c-.2-.3-.4-.6.1-.7.5-.1 9-1.6 9.4-1.7.4-.1.7-.2 1.2.5.5.6 6.9 8.8 7.2 9.1.3.3-.1.5-.7.6z"/></symbol><symbol id="ico_linkedin" viewBox="0 0 438.536 438.535"><path d="M5.424 145.895H99.64v282.932H5.424zm403.418 25.844c-19.791-21.604-45.967-32.408-78.512-32.408-11.991 0-22.891 1.475-32.695 4.427-9.801 2.95-18.079 7.089-24.838 12.419-6.755 5.33-12.135 10.278-16.129 14.844-3.798 4.337-7.512 9.389-11.136 15.104v-40.232h-93.935l.288 13.706c.193 9.139.288 37.307.288 84.508 0 47.205-.19 108.777-.572 184.722h93.931V270.942c0-9.705 1.041-17.412 3.139-23.127 4-9.712 10.037-17.843 18.131-24.407 8.093-6.572 18.13-9.855 30.125-9.855 16.364 0 28.407 5.662 36.117 16.987 7.707 11.324 11.561 26.98 11.561 46.966V428.82h93.931V266.664c-.007-41.688-9.897-73.328-29.694-94.925zM53.103 9.708c-15.796 0-28.595 4.619-38.4 13.848C4.899 32.787 0 44.441 0 58.529 0 72.42 4.758 84.034 14.275 93.358c9.514 9.325 22.078 13.99 37.685 13.99h.571c15.99 0 28.887-4.661 38.688-13.99 9.801-9.324 14.606-20.934 14.417-34.829-.19-14.087-5.047-25.742-14.561-34.973C81.562 14.323 68.9 9.708 53.103 9.708z"/></symbol><symbol id="ico_nodejs" viewBox="0 0 256 282" preserveAspectRatio="xMinYMin meet"><path d="M116.504 3.58c6.962-3.985 16.03-4.003 22.986 0 34.995 19.774 70.001 39.517 104.99 59.303 6.581 3.707 10.983 11.031 10.916 18.614v118.968c.049 7.897-4.788 15.396-11.731 19.019-34.88 19.665-69.742 39.354-104.616 59.019-7.106 4.063-16.356 3.75-23.24-.646-10.457-6.062-20.932-12.094-31.39-18.15-2.137-1.274-4.546-2.288-6.055-4.36 1.334-1.798 3.719-2.022 5.657-2.807 4.365-1.388 8.374-3.616 12.384-5.778 1.014-.694 2.252-.428 3.224.193 8.942 5.127 17.805 10.403 26.777 15.481 1.914 1.105 3.852-.362 5.488-1.274 34.228-19.345 68.498-38.617 102.72-57.968 1.268-.61 1.969-1.956 1.866-3.345.024-39.245.006-78.497.012-117.742.145-1.576-.767-3.025-2.192-3.67-34.759-19.575-69.5-39.18-104.253-58.76a3.621 3.621 0 0 0-4.094-.006C91.2 39.257 56.465 58.88 21.712 78.454c-1.42.646-2.373 2.071-2.204 3.653.006 39.245 0 78.497 0 117.748a3.329 3.329 0 0 0 1.89 3.303c9.274 5.259 18.56 10.481 27.84 15.722 5.228 2.814 11.647 4.486 17.407 2.33 5.083-1.823 8.646-7.01 8.549-12.407.048-39.016-.024-78.038.036-117.048-.127-1.732 1.516-3.163 3.2-3 4.456-.03 8.918-.06 13.374.012 1.86-.042 3.14 1.823 2.91 3.568-.018 39.263.048 78.527-.03 117.79.012 10.464-4.287 21.85-13.966 26.97-11.924 6.177-26.662 4.867-38.442-1.056-10.198-5.09-19.93-11.097-29.947-16.55C5.368 215.886.555 208.357.604 200.466V81.497c-.073-7.74 4.504-15.197 11.29-18.85C46.768 42.966 81.636 23.27 116.504 3.58zm30.424 82.41c15.21-.979 31.493-.58 45.18 6.913 10.597 5.742 16.472 17.793 16.659 29.566-.296 1.588-1.956 2.464-3.472 2.355-4.413-.006-8.827.06-13.24-.03-1.872.072-2.96-1.654-3.195-3.309-1.268-5.633-4.34-11.212-9.642-13.929-8.139-4.075-17.576-3.87-26.451-3.785-6.479.344-13.446.905-18.935 4.715-4.214 2.886-5.494 8.712-3.99 13.404 1.418 3.369 5.307 4.456 8.489 5.458 18.33 4.794 37.754 4.317 55.734 10.626 7.444 2.572 14.726 7.572 17.274 15.366 3.333 10.446 1.872 22.932-5.56 31.318-6.027 6.901-14.805 10.657-23.56 12.697-11.647 2.597-23.734 2.663-35.562 1.51-11.122-1.268-22.696-4.19-31.282-11.768-7.342-6.375-10.928-16.308-10.572-25.895.085-1.619 1.697-2.748 3.248-2.615 4.444-.036 8.888-.048 13.332.006 1.775-.127 3.091 1.407 3.182 3.08.82 5.367 2.837 11 7.517 14.182 9.032 5.827 20.365 5.428 30.707 5.591 8.568-.38 18.186-.495 25.178-6.158 3.689-3.23 4.782-8.634 3.785-13.283-1.08-3.925-5.186-5.754-8.712-6.95-18.095-5.724-37.736-3.647-55.656-10.12-7.275-2.571-14.31-7.432-17.105-14.906-3.9-10.578-2.113-23.662 6.098-31.765 8.006-8.06 19.563-11.164 30.551-12.275z" fill="#8CC84B"/></symbol><symbol id="ico_twitter" viewBox="0 0 449.956 449.956"><path d="M449.956 85.657c-17.702 7.614-35.408 12.369-53.102 14.279 19.985-11.991 33.503-28.931 40.546-50.819-18.281 10.847-37.787 18.268-58.532 22.267-18.274-19.414-40.73-29.125-67.383-29.125-25.502 0-47.246 8.992-65.24 26.98-17.984 17.987-26.977 39.731-26.977 65.235 0 6.851.76 13.896 2.284 21.128-37.688-1.903-73.042-11.372-106.068-28.407C82.46 110.158 54.433 87.46 31.403 59.101c-8.375 14.272-12.564 29.787-12.564 46.536 0 15.798 3.711 30.456 11.138 43.97 7.422 13.512 17.417 24.455 29.98 32.831-14.849-.572-28.743-4.475-41.684-11.708v1.142c0 22.271 6.995 41.824 20.983 58.674 13.99 16.848 31.645 27.453 52.961 31.833a95.543 95.543 0 0 1-24.269 3.138c-5.33 0-11.136-.475-17.416-1.42 5.9 18.459 16.75 33.633 32.546 45.535 15.799 11.896 33.691 18.028 53.677 18.418-33.498 26.262-71.66 39.393-114.486 39.393-8.186 0-15.607-.373-22.27-1.139 42.827 27.596 90.03 41.394 141.612 41.394 32.738 0 63.478-5.181 92.21-15.557 28.746-10.369 53.297-24.267 73.665-41.686 20.362-17.415 37.925-37.448 52.674-60.097 14.75-22.651 25.738-46.298 32.977-70.946 7.23-24.653 10.848-49.344 10.848-74.092 0-5.33-.096-9.325-.287-11.991 18.087-13.127 33.504-29.023 46.258-47.672z"/></symbol><symbol id="ico_wordpress" viewBox="0 0 447.674 447.674"><path d="M134.289 138.16h-24.722l67.399 190.521 37.732-107.825-29.254-82.696H159.36v-18.154h115.508v18.154h-27.049l67.398 190.521 24.227-69.234c31.781-88.702-26.048-116.333-26.048-136.129s16.048-35.843 35.843-35.843c1.071 0 2.111.058 3.13.153-33.541-31.663-78.768-51.08-128.534-51.08-65.027 0-122.306 33.146-155.884 83.458h66.336v18.154h.002zm-97.741 85.677c0 71.704 40.302 133.986 99.483 165.458l-84.52-238.919c-9.628 22.556-14.963 47.385-14.963 73.461zm350.285-92.29c2.679 15.774 1.868 33.503-2.243 51.301h.745l-2.832 8.092c-1.678 5.843-3.791 11.82-6.191 17.693l-64.444 180.541c59.057-31.51 99.256-93.725 99.256-165.338 0-33.557-8.834-65.048-24.291-92.289zM166.075 402.033c18.195 5.894 37.603 9.091 57.762 9.091 19.228 0 37.777-2.902 55.239-8.285l-54.784-154.862-58.217 154.056zM382.113 65.56C339.836 23.283 283.625 0 223.836 0S107.837 23.283 65.56 65.56 0 164.047 0 223.837c0 59.789 23.283 115.999 65.56 158.276s98.488 65.56 158.277 65.56 115.999-23.283 158.277-65.56c42.277-42.277 65.56-98.488 65.56-158.276-.001-59.79-23.284-116-65.561-158.277zM223.836 431.883c-114.717 0-208.046-93.329-208.046-208.046S109.119 15.79 223.836 15.79s208.046 93.33 208.046 208.047-93.328 208.046-208.046 208.046z" fill="#00769D"/></symbol></svg>