<svg xmlns="http://www.w3.org/2000/svg" width="149" height="123"><defs><filter id="a"><feFlood flood-color="#ff8400" flood-opacity="1" result="floodOut"/><feComposite operator="atop" in="floodOut" in2="SourceGraphic" result="compOut"/><feBlend in="compOut" in2="SourceGraphic"/></filter><filter id="b"><feFlood flood-color="#ff8400" flood-opacity="1" result="floodOut"/><feComposite operator="atop" in="floodOut" in2="SourceGraphic" result="compOut"/><feBlend in="compOut" in2="SourceGraphic"/></filter><linearGradient id="c" x1="77.715%" x2="0%" y1="62.932%" y2="0%"><stop offset="0%" stop-color="#ff8400"/><stop offset="100%" stop-color="#fb3d3c"/></linearGradient></defs><path fill-rule="evenodd" opacity=".149" fill="#ff8400" d="M127.073 65.104c-1.886 3.276-6.062 4.399-9.328 2.507l-16.557-9.589c3.265 1.892 4.384 6.081 2.499 9.357-1.886 3.275-6.062 4.398-9.328 2.507l-34.692-20.092c-3.266-1.891-4.385-6.08-2.5-9.356 1.886-3.276 6.062-4.399 9.328-2.507l25.236 14.615-41.005-23.748c-3.266-1.891-4.385-6.08-2.5-9.356 1.886-3.276 6.062-4.398 9.328-2.507l67.019 38.813c3.266 1.891 4.385 6.08 2.5 9.356zm-13.657 23.727c-1.886 3.276-6.062 4.398-9.328 2.507l-46.297-26.812 29.74 17.223c3.266 1.891 4.385 6.08 2.499 9.356-1.886 3.276-6.062 4.398-9.328 2.507l-34.692-20.091c-3.266-1.892-4.385-6.08-2.499-9.356 1.885-3.276 6.061-4.399 9.327-2.507l-15.769-9.133c-3.266-1.891-4.385-6.08-2.499-9.356 1.885-3.276 6.061-4.399 9.327-2.507l67.02 38.813c3.266 1.891 4.385 6.08 2.499 9.356zm-13.657 23.727c-1.885 3.275-6.061 4.398-9.327 2.507l-67.019-38.813c-3.266-1.891-4.385-6.081-2.5-9.357 1.886-3.275 6.062-4.398 9.328-2.507l67.019 38.813c3.266 1.892 4.385 6.081 2.499 9.357z"/><path stroke="#fff" stroke-width="2" opacity=".149" d="M122.5 110c3.038 0 5.5 2.462 5.5 5.5 0 3.037-2.462 5.5-5.5 5.5s-5.5-2.463-5.5-5.5c0-3.038 2.462-5.5 5.5-5.5z" filter="url(#a)" fill="none"/><path stroke="#fff" stroke-width="2" d="M122.5 110c3.038 0 5.5 2.462 5.5 5.5 0 3.037-2.462 5.5-5.5 5.5s-5.5-2.463-5.5-5.5c0-3.038 2.462-5.5 5.5-5.5z" fill="none"/><path stroke="#fff" stroke-width="2" opacity=".149" d="M82.5 1c3.037 0 5.5 2.462 5.5 5.5s-2.463 5.5-5.5 5.5c-3.038 0-5.5-2.462-5.5-5.5s2.462-5.5 5.5-5.5z" filter="url(#b)" fill="none"/><path stroke="#fff" stroke-width="2" d="M82.5 1c3.037 0 5.5 2.462 5.5 5.5s-2.463 5.5-5.5 5.5c-3.038 0-5.5-2.462-5.5-5.5s2.462-5.5 5.5-5.5z" fill="none"/><path fill-rule="evenodd" opacity=".149" fill="#ff8400" d="M138.343 61.131c-.028.131-.008.281.033.384.056.137.145.26.256.336.222.151.472.171.715.075.173-.068.319-.205.403-.397.314-.72.233-1.522.526-2.194l.9-2.063c.314-.72 1.147-1.049 1.875-.74l.436.185c1.116.473 1.855 1.611 2.957 2.049.291.124.61.117.853.021.313-.123.605-.398.689-.788.035-.213.022-.446-.061-.652-.082-.205-.235-.383-.408-.514-1.059-.733-2.586-.329-3.799-.843l-.388-.164c-.728-.309-1.059-1.131-.745-1.851l.733-1.679c.376-.864 1.321-1.515 1.469-2.448.029-.13.008-.281-.033-.384-.056-.137-.145-.26-.256-.335-.222-.151-.472-.172-.714-.076-.174.069-.32.206-.404.398-.377.863-.393 1.823-.783 2.653l-.691 1.583c-.314.72-1.147 1.049-1.875.74l-1.843-.781c-.825-.35-1.454-1.213-2.363-1.371-.263-.055-.575.068-.729.288-.153.219-.174.466-.078.706.069.171.208.315.402.397l2.717.755 1.601.678c.728.308 1.059 1.131.745 1.851l-.984 2.255c-.279.706-1.044 1.207-1.156 1.926zm-136.265-14.923c-.059.119-.076.271-.06.38.02.147.078.288.167.388.179.2.416.28.675.246.185-.025.36-.123.487-.289.479-.623.593-1.421 1.039-2.002l1.371-1.786c.479-.622 1.367-.741 1.999-.266l.379.285c.968.728 1.412 2.01 2.375 2.702.253.19.564.26.823.226.333-.045.683-.241.859-.599.085-.198.129-.428.098-.647-.031-.22-.135-.429-.272-.598-.852-.967-2.431-.942-3.484-1.734l-.337-.253c-.632-.475-.755-1.353-.277-1.976l1.116-1.453c.574-.747 1.648-1.151 2.017-2.02.058-.12.075-.272.059-.381-.02-.147-.078-.288-.167-.388-.179-.2-.416-.28-.675-.245-.185.024-.36.122-.487.288-.574.748-.821 1.675-1.4 2.386l-1.052 1.37c-.479.623-1.367.741-1.998.266l-1.601-1.202c-.716-.539-1.118-1.528-1.962-1.9-.242-.117-.576-.073-.777.103-.202.176-.282.41-.246.667.026.183.125.356.294.482l2.455 1.387 1.39 1.045c.632.475.755 1.353.277 1.976l-1.499 1.951c-.441.618-1.303.919-1.586 1.591z"/><path fill-rule="evenodd" d="M103.418 98.924l-58.778.081h-.002c-.421 0-.824-.167-1.121-.464-.299-.298-.466-.702-.467-1.123l-.047-34.459.002-.028c.008-.496.245-.982.684-1.285l8.918-6.171v-6.544c0-.877.711-1.589 1.588-1.589h10.166l8.744-6.05c.544-.377 1.265-.376 1.808.003l8.688 6.047h10.211c.876 0 1.588.712 1.588 1.589v6.622l8.875 6.177c.317.22.529.536.624.882.036.081.057.222.057.316l.048 34.404c.001.878-.709 1.591-1.586 1.592zm-4.737-3.172l-24.654-19.146-24.742 19.214 49.396-.068zm-46.074-36.413l-5.224 3.616 5.224 3.615v-7.231zm-6.425 6.652l.039 28.184 19.176-14.89-19.215-13.294zm27.823-21.457l-4.057 2.808h8.091l-4.034-2.808zm18.219 5.987h-36.441v18.246l12.246 8.473 5.025-3.902c.578-.449 1.367-.434 1.925-.015l.021.015 4.989 3.875 12.235-8.516v-18.176zm3.175 8.904v7.061l5.074-3.531-5.074-3.53zm6.386 6.489l-19.167 13.34 19.206 14.915-.039-28.255zm-40.119.821c0-.878.711-1.589 1.588-1.589h21.499c.877 0 1.587.711 1.587 1.589s-.71 1.59-1.587 1.59h-21.499c-.877 0-1.588-.712-1.588-1.59zm23.087-6.676h-21.499c-.877 0-1.588-.712-1.588-1.59 0-.878.711-1.589 1.588-1.589h21.499c.877 0 1.587.711 1.587 1.589s-.71 1.59-1.587 1.59z"/><path fill="url(#c)" d="M103.418 98.924l-58.778.081h-.002c-.421 0-.824-.167-1.121-.464-.299-.298-.466-.702-.467-1.123l-.047-34.459.002-.028c.008-.496.245-.982.684-1.285l8.918-6.171v-6.544c0-.877.711-1.589 1.588-1.589h10.166l8.744-6.05c.544-.377 1.265-.376 1.808.003l8.688 6.047h10.211c.876 0 1.588.712 1.588 1.589v6.622l8.875 6.177c.317.22.529.536.624.882.036.081.057.222.057.316l.048 34.404c.001.878-.709 1.591-1.586 1.592zm-4.737-3.172l-24.654-19.146-24.742 19.214 49.396-.068zm-46.074-36.413l-5.224 3.616 5.224 3.615v-7.231zm-6.425 6.652l.039 28.184 19.176-14.89-19.215-13.294zm27.823-21.457l-4.057 2.808h8.091l-4.034-2.808zm18.219 5.987h-36.441v18.246l12.246 8.473 5.025-3.902c.578-.449 1.367-.434 1.925-.015l.021.015 4.989 3.875 12.235-8.516v-18.176zm3.175 8.904v7.061l5.074-3.531-5.074-3.53zm6.386 6.489l-19.167 13.34 19.206 14.915-.039-28.255zm-40.119.821c0-.878.711-1.589 1.588-1.589h21.499c.877 0 1.587.711 1.587 1.589s-.71 1.59-1.587 1.59h-21.499c-.877 0-1.588-.712-1.588-1.59zm23.087-6.676h-21.499c-.877 0-1.588-.712-1.588-1.59 0-.878.711-1.589 1.588-1.589h21.499c.877 0 1.587.711 1.587 1.589s-.71 1.59-1.587 1.59z"/></svg>