<svg xmlns="http://www.w3.org/2000/svg" width="42" height="37"><path fill-rule="evenodd" fill="#d8d8d8" d="M40.525 20.008h-26.779l6.654 6.804c.583.587.583 1.534.008 2.122-.283.289-.66.438-1.037.438-.378 0-.755-.149-1.038-.438l-9.167-9.373c-.574-.588-.574-1.543 0-2.131l9.159-9.364c.574-.587 1.509-.587 2.083 0 .575.587.575 1.543 0 2.131l-6.654 6.803h26.771c.815 0 1.475.676 1.475 1.5 0 .833-.66 1.508-1.475 1.508zm-39.059 16.992c-.814 0-1.466-.675-1.466-1.508v-33.984c0-.833.66-1.508 1.466-1.508.815.008 1.475.675 1.475 1.508v33.984c0 .833-.66 1.508-1.475 1.508z"/></svg>
