<svg xmlns="http://www.w3.org/2000/svg" width="37" height="37"><path fill-rule="evenodd" fill="#5c5c5c" d="M37.001 37h-37.003l6.626-14.183h4.544l-1.855-2.733c-3.468-4.711-2.964-12.487 1.091-16.62 2.191-2.234 5.104-3.464 8.203-3.464 3.099 0 6.012 1.23 8.203 3.464 4.055 4.133 4.559 11.908 1.077 16.639l-1.843 2.713h4.332l6.625 14.184zm-10.094-17.619c3.159-4.293 2.708-11.316-.952-15.046-1.963-2-4.572-3.102-7.348-3.102-2.775 0-5.385 1.102-7.347 3.102-3.66 3.73-4.111 10.752-.966 15.028l2.346 3.453 5.967 8.784 8.3-12.219zm-1.7 4.668l-6.6 9.718-6.601-9.718h-4.618l-5.473 11.718h33.17l-5.474-11.718h-4.404zm-10.728-12.333c0-2.38 1.901-4.317 4.235-4.317 2.334 0 4.235 1.937 4.235 4.317s-1.901 4.317-4.235 4.317c-2.335 0-4.235-1.937-4.235-4.317zm4.235 3.084c1.668 0 3.025-1.384 3.025-3.084 0-1.7-1.357-3.083-3.025-3.083s-3.025 1.383-3.025 3.083c0 1.7 1.357 3.084 3.025 3.084z"/></svg>