<svg xmlns="http://www.w3.org/2000/svg" width="38" height="37"><path fill-rule="evenodd" fill="#5c5c5c" d="M35.91 12.918c-.12.121-.278.181-.436.181-.158 0-.316-.06-.437-.181-.241-.241-.241-.631 0-.872 2.307-2.304 2.307-6.053 0-8.357-.241-.241-.241-.63 0-.872.242-.241.632-.241.873 0 2.788 2.785 2.788 7.317 0 10.101zm-2.599-1.232c-.121.12-.279.18-.437.18-.158 0-.316-.06-.436-.18-.242-.241-.242-.631 0-.872.763-.763 1.184-1.779 1.184-2.86 0-1.082-.421-2.098-1.184-2.861-.242-.241-.242-.631 0-.872.241-.241.631-.241.873 0 .997.995 1.545 2.322 1.545 3.733s-.548 2.736-1.545 3.732zm-6.055 25.314h-15.551c-1.499 0-2.719-1.219-2.719-2.717v-31.567c0-1.497 1.22-2.716 2.719-2.716h15.552c1.499 0 2.719 1.219 2.719 2.716v31.568c0 1.497-1.22 2.716-2.72 2.716zm1.485-34.284c0-.818-.666-1.483-1.485-1.483h-15.551c-.818 0-1.484.665-1.484 1.483v.984h18.52v-.984zm0 2.217h-18.52v23.433h18.52v-23.433zm0 24.667h-18.52v4.684c0 .817.666 1.483 1.484 1.483h15.552c.818 0 1.484-.666 1.484-1.483v-4.684zm-9.26 5.55c-1.362 0-2.469-1.106-2.469-2.467 0-1.36 1.107-2.467 2.469-2.467 1.362 0 2.469 1.107 2.469 2.467 0 1.361-1.107 2.467-2.469 2.467zm0-3.7c-.681 0-1.235.553-1.235 1.233s.554 1.234 1.235 1.234 1.235-.554 1.235-1.234c0-.68-.554-1.233-1.235-1.233zm-2.469-29.6h2.469c.341 0 .617.276.617.616 0 .341-.276.617-.617.617h-2.469c-.342 0-.618-.276-.618-.617 0-.34.276-.616.618-.616zm4.321 0h.617c.342 0 .618.276.618.616 0 .341-.276.617-.618.617h-.617c-.341 0-.617-.276-.617-.617 0-.34.276-.616.617-.616zm-14.809 9.665c-.12.121-.278.181-.436.181-.158 0-.316-.06-.437-.181-.997-.996-1.546-2.321-1.546-3.732s.549-2.737 1.546-3.732c.242-.241.632-.241.873 0s.241.631 0 .872c-.764.763-1.184 1.778-1.184 2.86 0 1.081.421 2.098 1.184 2.861.242.241.242.63 0 .871zm-2.599.531c.241.241.241.631 0 .872-.121.121-.279.181-.437.181-.158 0-.316-.06-.436-.181-2.788-2.784-2.788-7.316 0-10.101.241-.241.631-.241.873 0 .241.242.241.631 0 .872-2.307 2.305-2.307 6.054 0 8.357z"/></svg>