<svg xmlns="http://www.w3.org/2000/svg" width="42" height="37"><path fill-rule="evenodd" fill="#d8d8d8" d="M40.534 37c-.815 0-1.475-.675-1.475-1.508v-33.984c0-.833.66-1.5 1.475-1.508.806 0 1.466.675 1.466 1.508v33.984c0 .833-.652 1.508-1.466 1.508zm-16.867-8.066c-.283.289-.661.438-1.038.438s-.754-.149-1.037-.438c-.575-.588-.575-1.535.008-2.122l6.654-6.804h-26.779c-.815 0-1.475-.675-1.475-1.508 0-.824.66-1.5 1.475-1.5h26.771l-6.654-6.803c-.575-.588-.575-1.544 0-2.131.574-.587 1.509-.587 2.083 0l9.158 9.364c.575.588.575 1.543 0 2.131l-9.166 9.373z"/></svg>
