<svg xmlns="http://www.w3.org/2000/svg" width="149" height="123"><defs><filter id="a"><feFlood flood-color="#ff8400" flood-opacity="1" result="floodOut"/><feComposite operator="atop" in="floodOut" in2="SourceGraphic" result="compOut"/><feBlend in="compOut" in2="SourceGraphic"/></filter><filter id="b"><feFlood flood-color="#ff8400" flood-opacity="1" result="floodOut"/><feComposite operator="atop" in="floodOut" in2="SourceGraphic" result="compOut"/><feBlend in="compOut" in2="SourceGraphic"/></filter><linearGradient id="c" x1="77.715%" x2="0%" y1="62.932%" y2="0%"><stop offset="0%" stop-color="#ff8400"/><stop offset="100%" stop-color="#fb3d3c"/></linearGradient></defs><path fill-rule="evenodd" opacity=".149" fill="#ff8400" d="M127.073 65.104c-1.886 3.276-6.062 4.399-9.328 2.507l-16.557-9.589c3.265 1.892 4.384 6.081 2.499 9.357-1.886 3.275-6.062 4.398-9.328 2.507l-34.692-20.092c-3.266-1.891-4.385-6.08-2.5-9.356 1.886-3.276 6.062-4.399 9.328-2.507l25.236 14.615-41.005-23.748c-3.266-1.891-4.385-6.08-2.5-9.356 1.886-3.276 6.062-4.398 9.328-2.507l67.019 38.813c3.266 1.891 4.385 6.08 2.5 9.356zm-13.657 23.727c-1.886 3.276-6.062 4.398-9.328 2.507l-46.297-26.812 29.74 17.223c3.266 1.891 4.385 6.08 2.499 9.356-1.886 3.276-6.062 4.398-9.328 2.507l-34.692-20.091c-3.266-1.892-4.385-6.08-2.499-9.356 1.885-3.276 6.061-4.399 9.327-2.507l-15.769-9.133c-3.266-1.891-4.385-6.08-2.499-9.356 1.885-3.276 6.061-4.399 9.327-2.507l67.02 38.813c3.266 1.891 4.385 6.08 2.499 9.356zm-13.657 23.727c-1.885 3.275-6.061 4.398-9.327 2.507l-67.02-38.813c-3.265-1.891-4.384-6.081-2.499-9.357 1.886-3.275 6.062-4.398 9.328-2.507l67.019 38.813c3.266 1.892 4.385 6.081 2.499 9.357z"/><path stroke="#fff" stroke-width="2" opacity=".149" d="M122.5 110c3.037 0 5.5 2.462 5.5 5.5 0 3.037-2.463 5.5-5.5 5.5-3.038 0-5.5-2.463-5.5-5.5 0-3.038 2.462-5.5 5.5-5.5z" filter="url(#a)" fill="none"/><path stroke="#fff" stroke-width="2" d="M122.5 110c3.037 0 5.5 2.462 5.5 5.5 0 3.037-2.463 5.5-5.5 5.5-3.038 0-5.5-2.463-5.5-5.5 0-3.038 2.462-5.5 5.5-5.5z" fill="none"/><path stroke="#fff" stroke-width="2" opacity=".149" d="M82.5 1c3.038 0 5.5 2.462 5.5 5.5s-2.462 5.5-5.5 5.5-5.5-2.462-5.5-5.5 2.462-5.5 5.5-5.5z" filter="url(#b)" fill="none"/><path stroke="#fff" stroke-width="2" d="M82.5 1c3.038 0 5.5 2.462 5.5 5.5s-2.462 5.5-5.5 5.5-5.5-2.462-5.5-5.5 2.462-5.5 5.5-5.5z" fill="none"/><path fill-rule="evenodd" opacity=".149" fill="#ff8400" d="M138.343 61.131c-.028.131-.008.281.033.384.056.137.145.26.256.336.222.151.472.171.715.075.173-.068.319-.205.403-.397.314-.72.233-1.522.526-2.194l.9-2.063c.314-.72 1.147-1.049 1.874-.74l.437.185c1.116.473 1.855 1.611 2.957 2.049.291.124.61.117.854.021.312-.123.604-.398.688-.788.035-.213.022-.446-.061-.652-.082-.205-.234-.383-.408-.514-1.059-.733-2.586-.329-3.799-.843l-.388-.164c-.728-.309-1.059-1.131-.745-1.851l.733-1.679c.376-.864 1.322-1.515 1.469-2.448.029-.13.008-.281-.033-.384-.055-.137-.145-.26-.256-.335-.222-.151-.471-.172-.715-.076-.173.069-.319.206-.403.398-.377.863-.393 1.823-.783 2.653l-.691 1.583c-.314.72-1.147 1.049-1.875.74l-1.843-.781c-.825-.35-1.454-1.213-2.362-1.371-.264-.055-.576.068-.73.288-.153.219-.174.466-.078.706.069.171.208.315.402.397l2.717.755 1.601.678c.728.308 1.059 1.131.745 1.851l-.984 2.255c-.279.706-1.044 1.207-1.156 1.926zm-136.265-14.923c-.059.119-.076.271-.06.38.02.147.078.288.167.388.179.2.416.28.675.246.185-.025.36-.123.487-.289.479-.623.593-1.421 1.04-2.002l1.37-1.786c.479-.622 1.367-.741 1.998-.266l.38.285c.968.728 1.412 2.01 2.375 2.702.253.19.564.26.823.226.333-.045.683-.241.859-.599.085-.198.129-.428.098-.647-.031-.22-.136-.429-.272-.598-.852-.967-2.431-.942-3.484-1.734l-.337-.253c-.632-.475-.755-1.353-.277-1.976l1.116-1.453c.574-.747 1.648-1.151 2.017-2.02.058-.12.075-.272.059-.381-.02-.147-.078-.288-.167-.388-.179-.2-.416-.28-.675-.245-.185.024-.36.122-.487.288-.574.748-.821 1.675-1.4 2.386l-1.052 1.37c-.479.623-1.367.741-1.998.266l-1.601-1.202c-.716-.539-1.118-1.528-1.962-1.9-.243-.117-.576-.073-.777.103-.202.176-.282.41-.246.667.026.183.125.356.294.482l2.455 1.387 1.39 1.045c.632.475.755 1.353.277 1.976l-1.499 1.951c-.441.618-1.304.919-1.586 1.591z"/><path fill-rule="evenodd" d="M88.342 79.274c-.049-.006-7.183.205-8.244-7.438 1.178-.823 2.265-1.89 3.222-3.185 1.862-2.519 3.061-5.68 3.489-9.099.146-.132.268-.298.35-.492.773-1.841 1.165-3.808 1.165-5.844 0-7.816-5.898-14.174-13.148-14.174-1.896 0-3.735.436-5.473 1.298-.662.051-1.312.168-1.935.347-2.977.86-5.4 3.067-6.822 6.215-1.381 3.056-1.653 6.653-.767 10.13.188.734.426 1.456.709 2.146.076.186.19.345.327.476.692 5.336 3.232 9.757 6.695 12.171-1.064 7.656-8.196 7.444-8.245 7.449-5.13.174-9.251 4.398-9.251 9.568v10.763c0 .77.624 1.395 1.395 1.395h44.389c.771 0 1.396-.625 1.396-1.395v-10.763c0-5.171-4.121-9.395-9.252-9.568zm-19.799-35.906c.509-.147 1.047-.235 1.599-.26.205-.009.405-.063.586-.158 1.413-.742 2.91-1.118 4.448-1.118 5.711 0 10.357 5.107 10.357 11.384l-.014.563c-1.107-1.125-2.646-1.823-4.346-1.823h-9.511c-.566 0-1.103-.178-1.553-.514-.385-.287-.682-.673-.86-1.116-.275-.684-.953-1.112-1.691-1.066-.741.047-1.364.561-1.552 1.28-.551 2.117-1.65 4.068-3.158 5.649-1.403-5.772 1.129-11.503 5.695-12.821zm-1.214 24.128c-1.816-2.218-3.005-5.212-3.382-8.491 1.761-1.568 3.153-3.521 4.059-5.687.138.127.282.247.433.36.937.698 2.051 1.068 3.223 1.068h9.512c1.345 0 2.505.807 3.023 1.962l-.002.029c0 7.875-4.571 14.282-10.189 14.282-2.445 0-4.817-1.251-6.677-3.523zm3.207 5.699c1.106.4 2.27.614 3.47.614 1.19 0 2.353-.207 3.467-.607.511 2.662 1.991 4.981 4.059 6.578l-7.328 10.432c-.048.068-.115.103-.198.103s-.15-.035-.197-.103l-7.33-10.434c2.068-1.599 3.547-3.92 4.057-6.583zm24.267 25.015h-41.598v-9.368c0-3.742 3.045-6.787 6.788-6.787.051 0 2.297-.054 4.071-.86l7.46 10.62c.567.808 1.495 1.29 2.482 1.29.987 0 1.915-.482 2.482-1.29l7.459-10.619c2.023.86 4.016.86 4.067.86 3.743 0 6.789 3.044 6.789 6.786v9.368z"/><path fill="url(#c)" d="M88.342 79.274c-.049-.006-7.183.205-8.244-7.438 1.178-.823 2.265-1.89 3.222-3.185 1.862-2.519 3.061-5.68 3.489-9.099.146-.132.268-.298.35-.492.773-1.841 1.165-3.808 1.165-5.844 0-7.816-5.898-14.174-13.148-14.174-1.896 0-3.735.436-5.473 1.298-.662.051-1.312.168-1.935.347-2.977.86-5.4 3.067-6.822 6.215-1.381 3.056-1.653 6.653-.767 10.13.188.734.426 1.456.709 2.146.076.186.19.345.327.476.692 5.336 3.232 9.757 6.695 12.171-1.064 7.656-8.196 7.444-8.245 7.449-5.13.174-9.251 4.398-9.251 9.568v10.763c0 .77.624 1.395 1.395 1.395h44.389c.771 0 1.396-.625 1.396-1.395v-10.763c0-5.171-4.121-9.395-9.252-9.568zm-19.799-35.906c.509-.147 1.047-.235 1.599-.26.205-.009.405-.063.586-.158 1.413-.742 2.91-1.118 4.448-1.118 5.711 0 10.357 5.107 10.357 11.384l-.014.563c-1.107-1.125-2.646-1.823-4.346-1.823h-9.511c-.566 0-1.103-.178-1.553-.514-.385-.287-.682-.673-.86-1.116-.275-.684-.953-1.112-1.691-1.066-.741.047-1.364.561-1.552 1.28-.551 2.117-1.65 4.068-3.158 5.649-1.403-5.772 1.129-11.503 5.695-12.821zm-1.214 24.128c-1.816-2.218-3.005-5.212-3.382-8.491 1.761-1.568 3.153-3.521 4.059-5.687.138.127.282.247.433.36.937.698 2.051 1.068 3.223 1.068h9.512c1.345 0 2.505.807 3.023 1.962l-.002.029c0 7.875-4.571 14.282-10.189 14.282-2.445 0-4.817-1.251-6.677-3.523zm3.207 5.699c1.106.4 2.27.614 3.47.614 1.19 0 2.353-.207 3.467-.607.511 2.662 1.991 4.981 4.059 6.578l-7.328 10.432c-.048.068-.115.103-.198.103s-.15-.035-.197-.103l-7.33-10.434c2.068-1.599 3.547-3.92 4.057-6.583zm24.267 25.015h-41.598v-9.368c0-3.742 3.045-6.787 6.788-6.787.051 0 2.297-.054 4.071-.86l7.46 10.62c.567.808 1.495 1.29 2.482 1.29.987 0 1.915-.482 2.482-1.29l7.459-10.619c2.023.86 4.016.86 4.067.86 3.743 0 6.789 3.044 6.789 6.786v9.368z"/></svg>