<svg xmlns="http://www.w3.org/2000/svg" width="37" height="37"><path fill-rule="evenodd" fill="#5c5c5c" d="M37 6.727c0-3.709-3.074-6.727-6.852-6.727-3.062 0-5.66 1.983-6.536 4.709h-20.025c-1.978 0-3.587 1.58-3.587 3.522v25.247c0 1.942 1.609 3.522 3.587 3.522h25.714c1.978 0 3.587-1.58 3.587-3.522v-20.589c2.417-1.041 4.112-3.41 4.112-6.162zm-5.482 26.751c0 1.2-.994 2.176-2.216 2.176h-25.715c-1.222 0-2.217-.976-2.217-2.176v-25.247c0-1.2.995-2.176 2.217-2.176h19.743c-.021.221-.034.445-.034.672 0 3.709 3.074 6.727 6.852 6.727.469 0 .928-.047 1.37-.135v20.159zm.449-21.68l-.411.124-.074.019-.366.079-.192.029-.276.036-.5.024c-3.022 0-5.481-2.415-5.481-5.382 0-.39.047-.792.141-1.195.555-2.394 2.736-4.187 5.34-4.187 3.022 0 5.482 2.415 5.482 5.382 0 2.341-1.534 4.332-3.663 5.071z"/></svg>