<svg xmlns="http://www.w3.org/2000/svg" width="19" height="17"><path fill-rule="evenodd" fill="#ffa800" d="M18.158 7.704c.365-.34.494-.84.337-1.305-.158-.464-.57-.795-1.076-.866l-4.496-.625c-.191-.026-.357-.141-.442-.307l-2.01-3.894c-.226-.437-.684-.709-1.194-.709-.511 0-.969.272-1.194.709l-2.01 3.894c-.086.166-.252.281-.443.308l-4.496.625c-.505.07-.917.401-1.076.865-.157.465-.028.965.337 1.306l3.253 3.03c.139.13.203.316.17.498l-.768 4.279c-.068.377.035.744.291 1.033.396.45 1.089.587 1.641.309l4.021-2.021c.167-.084.379-.083.547 0l4.021 2.021c.196.098.404.148.62.148.392 0 .765-.167 1.022-.457.255-.289.358-.656.29-1.033l-.768-4.279c-.032-.183.031-.368.17-.498l3.253-3.031z"/></svg>