<svg xmlns="http://www.w3.org/2000/svg" width="149" height="123"><defs><filter id="a"><feFlood flood-color="#ff8400" flood-opacity="1" result="floodOut"/><feComposite operator="atop" in="floodOut" in2="SourceGraphic" result="compOut"/><feBlend in="compOut" in2="SourceGraphic"/></filter><filter id="b"><feFlood flood-color="#ff8400" flood-opacity="1" result="floodOut"/><feComposite operator="atop" in="floodOut" in2="SourceGraphic" result="compOut"/><feBlend in="compOut" in2="SourceGraphic"/></filter><linearGradient id="c" x1="77.715%" x2="0%" y1="62.932%" y2="0%"><stop offset="0%" stop-color="#ff8400"/><stop offset="100%" stop-color="#fb3d3c"/></linearGradient></defs><path fill-rule="evenodd" opacity=".149" fill="#ff8400" d="M127.073 65.104c-1.886 3.276-6.062 4.398-9.328 2.507l-16.557-9.589c3.265 1.892 4.384 6.081 2.499 9.356-1.886 3.276-6.062 4.399-9.328 2.507l-34.692-20.091c-3.266-1.891-4.385-6.08-2.5-9.356 1.886-3.276 6.062-4.399 9.328-2.507l25.236 14.615-41.005-23.748c-3.266-1.891-4.385-6.08-2.5-9.356 1.886-3.276 6.062-4.398 9.328-2.507l67.019 38.813c3.266 1.891 4.385 6.08 2.5 9.356zm-13.657 23.727c-1.886 3.276-6.062 4.398-9.328 2.507l-46.297-26.812 29.74 17.223c3.266 1.891 4.385 6.08 2.499 9.356-1.886 3.276-6.062 4.398-9.328 2.507l-34.692-20.091c-3.266-1.892-4.385-6.08-2.499-9.356 1.885-3.276 6.061-4.399 9.327-2.507l-15.769-9.133c-3.266-1.891-4.385-6.08-2.499-9.356 1.885-3.276 6.061-4.399 9.327-2.507l67.02 38.813c3.266 1.891 4.385 6.08 2.499 9.356zm-13.657 23.727c-1.885 3.275-6.061 4.398-9.327 2.506l-67.019-38.812c-3.266-1.891-4.385-6.081-2.5-9.357 1.886-3.276 6.062-4.398 9.328-2.507l67.019 38.813c3.266 1.892 4.385 6.081 2.499 9.357z"/><path stroke="#fff" stroke-width="2" opacity=".149" d="M122.5 110c3.038 0 5.5 2.462 5.5 5.5 0 3.037-2.462 5.5-5.5 5.5s-5.5-2.463-5.5-5.5c0-3.038 2.462-5.5 5.5-5.5z" filter="url(#a)" fill="none"/><path stroke="#fff" stroke-width="2" d="M122.5 110c3.038 0 5.5 2.462 5.5 5.5 0 3.037-2.462 5.5-5.5 5.5s-5.5-2.463-5.5-5.5c0-3.038 2.462-5.5 5.5-5.5z" fill="none"/><path stroke="#fff" stroke-width="2" opacity=".149" d="M82.5 1c3.037 0 5.5 2.462 5.5 5.5s-2.463 5.5-5.5 5.5c-3.038 0-5.5-2.462-5.5-5.5s2.462-5.5 5.5-5.5z" filter="url(#b)" fill="none"/><path stroke="#fff" stroke-width="2" d="M82.5 1c3.037 0 5.5 2.462 5.5 5.5s-2.463 5.5-5.5 5.5c-3.038 0-5.5-2.462-5.5-5.5s2.462-5.5 5.5-5.5z" fill="none"/><path fill-rule="evenodd" opacity=".149" fill="#ff8400" d="M138.343 61.131c-.028.13-.008.281.033.384.056.137.145.261.256.336.222.151.472.171.715.075.173-.068.319-.205.403-.397.314-.72.233-1.522.526-2.194l.9-2.063c.314-.72 1.147-1.049 1.875-.74l.436.185c1.116.473 1.855 1.611 2.957 2.049.291.124.61.117.853.021.313-.123.605-.398.689-.788.035-.213.022-.446-.061-.651-.082-.206-.235-.384-.408-.515-1.059-.733-2.586-.329-3.799-.843l-.388-.164c-.728-.309-1.059-1.131-.745-1.851l.733-1.679c.376-.864 1.321-1.515 1.469-2.448.029-.13.008-.281-.033-.384-.056-.137-.145-.26-.256-.335-.222-.151-.472-.172-.714-.076-.174.069-.32.206-.404.398-.377.863-.393 1.823-.783 2.653l-.691 1.583c-.314.72-1.147 1.049-1.875.74l-1.843-.781c-.825-.35-1.454-1.213-2.363-1.371-.263-.055-.575.068-.729.288-.153.219-.174.466-.078.706.069.171.208.315.402.397l2.717.755 1.601.678c.728.309 1.059 1.131.745 1.851l-.984 2.255c-.279.706-1.044 1.206-1.156 1.926zm-136.265-14.923c-.059.119-.076.27-.06.38.02.147.078.288.167.388.179.2.416.28.675.245.185-.024.36-.122.487-.288.479-.623.593-1.421 1.039-2.002l1.371-1.786c.479-.622 1.367-.741 1.999-.266l.379.285c.968.728 1.412 2.01 2.375 2.702.253.19.564.26.823.226.333-.045.683-.241.859-.599.085-.198.129-.428.098-.647-.031-.22-.135-.429-.272-.598-.852-.967-2.431-.942-3.484-1.734l-.337-.253c-.632-.475-.755-1.353-.277-1.976l1.116-1.453c.574-.747 1.648-1.151 2.017-2.02.058-.12.075-.272.059-.381-.02-.147-.078-.288-.167-.388-.179-.2-.416-.28-.675-.245-.185.024-.36.122-.487.288-.574.748-.821 1.675-1.4 2.386l-1.052 1.37c-.479.623-1.367.741-1.998.266l-1.601-1.202c-.716-.538-1.118-1.528-1.962-1.9-.242-.117-.576-.073-.777.103-.202.176-.282.41-.246.667.026.183.125.356.294.482l2.455 1.387 1.39 1.045c.632.475.755 1.353.277 1.976l-1.499 1.951c-.441.618-1.303.919-1.586 1.591z"/><path fill-rule="evenodd" d="M103.134 58.29c-.48.072-.972.142-1.467.208-.25.831-.584 1.636-.995 2.4.303.396.602.793.891 1.184.641.867.548 2.097-.216 2.861l-1.914 1.914c-.764.764-1.995.857-2.862.215-.391-.289-.789-.588-1.184-.89-.765.411-1.57.745-2.401.994-.066.496-.135.988-.207 1.467-.159 1.067-1.095 1.871-2.175 1.871h-2.708c-1.081 0-2.016-.805-2.176-1.871-.071-.479-.141-.971-.207-1.467-.831-.249-1.636-.583-2.401-.994-.395.302-.792.601-1.184.89-.867.642-2.097.549-2.861-.215l-1.915-1.914c-.764-.764-.857-1.994-.216-2.861.29-.391.589-.788.891-1.184-.411-.765-.745-1.57-.994-2.4-.496-.066-.988-.136-1.467-.208-1.067-.159-1.871-1.094-1.871-2.175v-2.707c0-1.08.804-2.015 1.871-2.175.479-.072.971-.141 1.467-.207.25-.831.583-1.636.995-2.4-.304-.397-.603-.794-.891-1.184-.642-.868-.549-2.098.215-2.862l1.915-1.913c.764-.764 1.994-.857 2.861-.216.392.29.789.589 1.185.891.764-.412 1.569-.745 2.4-.995.066-.496.136-.988.207-1.466.16-1.067 1.095-1.871 2.176-1.871h2.708c1.08 0 2.016.804 2.175 1.871.072.479.141.971.207 1.466.831.25 1.636.583 2.401.995.395-.302.793-.601 1.184-.891.867-.641 2.098-.548 2.862.216l1.914 1.914c.764.763.857 1.993.216 2.86-.289.391-.588.788-.891 1.185.411.764.745 1.569.995 2.4.495.066.987.135 1.467.207 1.066.16 1.871 1.095 1.871 2.175v2.708c0 1.08-.805 2.015-1.871 2.174zm-.766-4.505c-.436-.063-.88-.124-1.325-.182-.881-.115-1.602-.74-1.837-1.592-.225-.816-.551-1.604-.97-2.341-.437-.769-.369-1.721.172-2.425.274-.356.545-.713.808-1.066l-1.381-1.381c-.355.264-.712.535-1.066.807-.704.541-1.657.609-2.427.172-.737-.419-1.524-.745-2.341-.97-.852-.235-1.477-.956-1.592-1.836-.058-.445-.12-.89-.183-1.324h-1.953c-.063.435-.125.879-.183 1.324-.114.88-.74 1.601-1.593 1.836-.815.225-1.603.552-2.34.97-.77.438-1.723.37-2.427-.172-.354-.272-.711-.543-1.066-.807l-1.381 1.381c.264.353.534.71.808 1.065.542.704.609 1.657.172 2.426-.419.737-.745 1.524-.97 2.341-.235.852-.956 1.477-1.837 1.592-.446.058-.889.119-1.324.182v1.953c.435.064.879.125 1.324.183.881.115 1.602.74 1.837 1.592.225.816.551 1.603.97 2.341.437.769.37 1.721-.172 2.425l-.808 1.066 1.381 1.381c.355-.264.712-.535 1.067-.807.704-.542 1.656-.609 2.426-.172.737.419 1.525.745 2.341.97.852.235 1.478.956 1.593 1.836.058.445.119.889.182 1.324h1.954c.063-.435.124-.879.182-1.324.115-.88.74-1.601 1.593-1.836.815-.225 1.603-.552 2.34-.971.77-.436 1.722-.369 2.427.173.354.272.712.543 1.066.807l1.381-1.381c-.264-.353-.535-.71-.808-1.065-.541-.705-.609-1.657-.172-2.426.419-.737.746-1.524.97-2.341.235-.852.956-1.477 1.837-1.592.446-.058.889-.119 1.325-.183v-1.953zm-13.118 6.596c-3.099 0-5.62-2.521-5.62-5.619 0-3.099 2.521-5.619 5.62-5.619s5.62 2.52 5.62 5.619c0 3.098-2.521 5.619-5.62 5.619zm0-8.741c-1.722 0-3.122 1.401-3.122 3.122 0 1.721 1.4 3.121 3.122 3.121 1.721 0 3.122-1.4 3.122-3.121s-1.401-3.122-3.122-3.122zm-14.334 12.943c-.183.736-.378 1.487-.579 2.236 1.059.836 2.018 1.795 2.854 2.852.749-.201 1.5-.395 2.236-.578 1.237-.309 2.538.349 3.027 1.529l1.425 3.442c.489 1.18.034 2.565-1.059 3.221-.648.39-1.317.784-1.989 1.171.157 1.338.157 2.694-.001 4.035.67.386 1.339.78 1.991 1.171 1.092.657 1.547 2.042 1.059 3.222l-1.426 3.441c-.489 1.181-1.79 1.838-3.027 1.53-.736-.184-1.488-.378-2.236-.579-.837 1.059-1.796 2.018-2.853 2.853.202.754.396 1.505.578 2.235.309 1.237-.349 2.538-1.529 3.027l-3.442 1.425c-1.181.489-2.566.034-3.223-1.058-.392-.653-.786-1.322-1.171-1.99-1.338.157-2.695.157-4.035 0-.39.675-.784 1.344-1.172 1.99-.479.796-1.345 1.253-2.237 1.253-.331 0-.666-.063-.986-.195l-3.442-1.426c-1.18-.488-1.838-1.789-1.529-3.026.183-.735.377-1.486.578-2.236-1.059-.836-2.018-1.794-2.854-2.852-.749.201-1.5.396-2.235.578-1.237.309-2.538-.349-3.027-1.529l-1.426-3.441c-.488-1.18-.033-2.565 1.059-3.222.65-.39 1.319-.784 1.99-1.171-.157-1.339-.157-2.694.001-4.034-.67-.387-1.34-.781-1.991-1.172-1.092-.656-1.547-2.041-1.058-3.221l1.425-3.442c.489-1.18 1.79-1.838 3.027-1.529.734.183 1.486.377 2.236.579.837-1.059 1.796-2.018 2.853-2.854-.2-.747-.395-1.498-.578-2.235-.309-1.236.349-2.537 1.529-3.026l3.442-1.426c1.181-.488 2.566-.033 3.223 1.059.389.648.783 1.317 1.171 1.989 1.339-.157 2.695-.156 4.035.001.387-.67.781-1.339 1.172-1.99.657-1.093 2.042-1.547 3.222-1.059l3.442 1.426c1.181.489 1.838 1.79 1.53 3.026zm-2.379 4.35c-.826-.642-1.183-1.712-.91-2.726.193-.718.381-1.438.558-2.144l-3.164-1.31c-.375.625-.752 1.267-1.122 1.909-.524.911-1.533 1.416-2.571 1.286-1.194-.149-2.402-.149-3.593 0-1.035.129-2.045-.376-2.569-1.286-.371-.645-.748-1.286-1.122-1.909l-3.164 1.31c.178.707.365 1.427.558 2.143.273 1.014-.083 2.084-.908 2.725-.947.738-1.801 1.592-2.539 2.54-.643.826-1.714 1.182-2.728.909-.719-.193-1.439-.38-2.144-.557l-1.311 3.163c.626.376 1.268.752 1.911 1.122.911.524 1.415 1.533 1.286 2.571-.148 1.192-.149 2.401-.001 3.591.129 1.037-.376 2.046-1.286 2.569-.643.37-1.284.747-1.909 1.122l1.31 3.163c.706-.177 1.426-.364 2.143-.557 1.015-.273 2.085.083 2.727.907.737.947 1.592 1.801 2.54 2.539.825.643 1.182 1.713.909 2.727-.193.718-.38 1.438-.557 2.144l3.164 1.31c.372-.621.749-1.263 1.122-1.91.524-.91 1.532-1.414 2.571-1.285 1.193.148 2.401.148 3.592 0 1.037-.128 2.046.376 2.57 1.286.368.64.745 1.281 1.121 1.909l3.164-1.31c-.176-.702-.363-1.422-.557-2.143-.273-1.013.083-2.084.907-2.725.947-.738 1.802-1.592 2.54-2.54.642-.826 1.713-1.182 2.728-.909.716.193 1.437.38 2.144.557l1.31-3.163c-.627-.376-1.269-.753-1.91-1.122-.911-.524-1.416-1.533-1.286-2.571.148-1.193.148-2.401 0-3.592-.129-1.037.376-2.045 1.286-2.569.644-.37 1.286-.747 1.91-1.121l-1.311-3.163c-.706.177-1.426.364-2.143.557-1.014.273-2.084-.083-2.726-.908-.738-.946-1.592-1.8-2.54-2.539zm-5.384 20.279c-1.167.483-2.394.725-3.62.725-1.227 0-2.453-.242-3.62-.725-2.335-.967-4.153-2.785-5.12-5.119-1.996-4.818.301-10.362 5.12-12.358 4.82-1.996 10.364.301 12.36 5.119 1.996 4.819-.301 10.362-5.12 12.358zm2.556-11.296c-1.066-2.571-3.56-4.126-6.185-4.126-.851 0-1.715.164-2.549.509-3.405 1.41-5.028 5.328-3.618 8.732.684 1.649 1.969 2.934 3.618 3.617 1.65.683 3.467.683 5.116 0 3.405-1.41 5.028-5.327 3.618-8.732z"/><path fill="url(#c)" d="M103.134 58.29c-.48.072-.972.142-1.467.208-.25.831-.584 1.636-.995 2.4.303.396.602.793.891 1.184.641.867.548 2.097-.216 2.861l-1.914 1.914c-.764.764-1.995.857-2.862.215-.391-.289-.789-.588-1.184-.89-.765.411-1.57.745-2.401.994-.066.496-.135.988-.207 1.467-.159 1.067-1.095 1.871-2.175 1.871h-2.708c-1.081 0-2.016-.805-2.176-1.871-.071-.479-.141-.971-.207-1.467-.831-.249-1.636-.583-2.401-.994-.395.302-.792.601-1.184.89-.867.642-2.097.549-2.861-.215l-1.915-1.914c-.764-.764-.857-1.994-.216-2.861.29-.391.589-.788.891-1.184-.411-.765-.745-1.57-.994-2.4-.496-.066-.988-.136-1.467-.208-1.067-.159-1.871-1.094-1.871-2.175v-2.707c0-1.08.804-2.015 1.871-2.175.479-.072.971-.141 1.467-.207.25-.831.583-1.636.995-2.4-.304-.397-.603-.794-.891-1.184-.642-.868-.549-2.098.215-2.862l1.915-1.913c.764-.764 1.994-.857 2.861-.216.392.29.789.589 1.185.891.764-.412 1.569-.745 2.4-.995.066-.496.136-.988.207-1.466.16-1.067 1.095-1.871 2.176-1.871h2.708c1.08 0 2.016.804 2.175 1.871.072.479.141.971.207 1.466.831.25 1.636.583 2.401.995.395-.302.793-.601 1.184-.891.867-.641 2.098-.548 2.862.216l1.914 1.914c.764.763.857 1.993.216 2.86-.289.391-.588.788-.891 1.185.411.764.745 1.569.995 2.4.495.066.987.135 1.467.207 1.066.16 1.871 1.095 1.871 2.175v2.708c0 1.08-.805 2.015-1.871 2.174zm-.766-4.505c-.436-.063-.88-.124-1.325-.182-.881-.115-1.602-.74-1.837-1.592-.225-.816-.551-1.604-.97-2.341-.437-.769-.369-1.721.172-2.425.274-.356.545-.713.808-1.066l-1.381-1.381c-.355.264-.712.535-1.066.807-.704.541-1.657.609-2.427.172-.737-.419-1.524-.745-2.341-.97-.852-.235-1.477-.956-1.592-1.836-.058-.445-.12-.89-.183-1.324h-1.953c-.063.435-.125.879-.183 1.324-.114.88-.74 1.601-1.593 1.836-.815.225-1.603.552-2.34.97-.77.438-1.723.37-2.427-.172-.354-.272-.711-.543-1.066-.807l-1.381 1.381c.264.353.534.71.808 1.065.542.704.609 1.657.172 2.426-.419.737-.745 1.524-.97 2.341-.235.852-.956 1.477-1.837 1.592-.446.058-.889.119-1.324.182v1.953c.435.064.879.125 1.324.183.881.115 1.602.74 1.837 1.592.225.816.551 1.603.97 2.341.437.769.37 1.721-.172 2.425l-.808 1.066 1.381 1.381c.355-.264.712-.535 1.067-.807.704-.542 1.656-.609 2.426-.172.737.419 1.525.745 2.341.97.852.235 1.478.956 1.593 1.836.058.445.119.889.182 1.324h1.954c.063-.435.124-.879.182-1.324.115-.88.74-1.601 1.593-1.836.815-.225 1.603-.552 2.34-.971.77-.436 1.722-.369 2.427.173.354.272.712.543 1.066.807l1.381-1.381c-.264-.353-.535-.71-.808-1.065-.541-.705-.609-1.657-.172-2.426.419-.737.746-1.524.97-2.341.235-.852.956-1.477 1.837-1.592.446-.058.889-.119 1.325-.183v-1.953zm-13.118 6.596c-3.099 0-5.62-2.521-5.62-5.619 0-3.099 2.521-5.619 5.62-5.619s5.62 2.52 5.62 5.619c0 3.098-2.521 5.619-5.62 5.619zm0-8.741c-1.722 0-3.122 1.401-3.122 3.122 0 1.721 1.4 3.121 3.122 3.121 1.721 0 3.122-1.4 3.122-3.121s-1.401-3.122-3.122-3.122zm-14.334 12.943c-.183.736-.378 1.487-.579 2.236 1.059.836 2.018 1.795 2.854 2.852.749-.201 1.5-.395 2.236-.578 1.237-.309 2.538.349 3.027 1.529l1.425 3.442c.489 1.18.034 2.565-1.059 3.221-.648.39-1.317.784-1.989 1.171.157 1.338.157 2.694-.001 4.035.67.386 1.339.78 1.991 1.171 1.092.657 1.547 2.042 1.059 3.222l-1.426 3.441c-.489 1.181-1.79 1.838-3.027 1.53-.736-.184-1.488-.378-2.236-.579-.837 1.059-1.796 2.018-2.853 2.853.202.754.396 1.505.578 2.235.309 1.237-.349 2.538-1.529 3.027l-3.442 1.425c-1.181.489-2.566.034-3.223-1.058-.392-.653-.786-1.322-1.171-1.99-1.338.157-2.695.157-4.035 0-.39.675-.784 1.344-1.172 1.99-.479.796-1.345 1.253-2.237 1.253-.331 0-.666-.063-.986-.195l-3.442-1.426c-1.18-.488-1.838-1.789-1.529-3.026.183-.735.377-1.486.578-2.236-1.059-.836-2.018-1.794-2.854-2.852-.749.201-1.5.396-2.235.578-1.237.309-2.538-.349-3.027-1.529l-1.426-3.441c-.488-1.18-.033-2.565 1.059-3.222.65-.39 1.319-.784 1.99-1.171-.157-1.339-.157-2.694.001-4.034-.67-.387-1.34-.781-1.991-1.172-1.092-.656-1.547-2.041-1.058-3.221l1.425-3.442c.489-1.18 1.79-1.838 3.027-1.529.734.183 1.486.377 2.236.579.837-1.059 1.796-2.018 2.853-2.854-.2-.747-.395-1.498-.578-2.235-.309-1.236.349-2.537 1.529-3.026l3.442-1.426c1.181-.488 2.566-.033 3.223 1.059.389.648.783 1.317 1.171 1.989 1.339-.157 2.695-.156 4.035.001.387-.67.781-1.339 1.172-1.99.657-1.093 2.042-1.547 3.222-1.059l3.442 1.426c1.181.489 1.838 1.79 1.53 3.026zm-2.379 4.35c-.826-.642-1.183-1.712-.91-2.726.193-.718.381-1.438.558-2.144l-3.164-1.31c-.375.625-.752 1.267-1.122 1.909-.524.911-1.533 1.416-2.571 1.286-1.194-.149-2.402-.149-3.593 0-1.035.129-2.045-.376-2.569-1.286-.371-.645-.748-1.286-1.122-1.909l-3.164 1.31c.178.707.365 1.427.558 2.143.273 1.014-.083 2.084-.908 2.725-.947.738-1.801 1.592-2.539 2.54-.643.826-1.714 1.182-2.728.909-.719-.193-1.439-.38-2.144-.557l-1.311 3.163c.626.376 1.268.752 1.911 1.122.911.524 1.415 1.533 1.286 2.571-.148 1.192-.149 2.401-.001 3.591.129 1.037-.376 2.046-1.286 2.569-.643.37-1.284.747-1.909 1.122l1.31 3.163c.706-.177 1.426-.364 2.143-.557 1.015-.273 2.085.083 2.727.907.737.947 1.592 1.801 2.54 2.539.825.643 1.182 1.713.909 2.727-.193.718-.38 1.438-.557 2.144l3.164 1.31c.372-.621.749-1.263 1.122-1.91.524-.91 1.532-1.414 2.571-1.285 1.193.148 2.401.148 3.592 0 1.037-.128 2.046.376 2.57 1.286.368.64.745 1.281 1.121 1.909l3.164-1.31c-.176-.702-.363-1.422-.557-2.143-.273-1.013.083-2.084.907-2.725.947-.738 1.802-1.592 2.54-2.54.642-.826 1.713-1.182 2.728-.909.716.193 1.437.38 2.144.557l1.31-3.163c-.627-.376-1.269-.753-1.91-1.122-.911-.524-1.416-1.533-1.286-2.571.148-1.193.148-2.401 0-3.592-.129-1.037.376-2.045 1.286-2.569.644-.37 1.286-.747 1.91-1.121l-1.311-3.163c-.706.177-1.426.364-2.143.557-1.014.273-2.084-.083-2.726-.908-.738-.946-1.592-1.8-2.54-2.539zm-5.384 20.279c-1.167.483-2.394.725-3.62.725-1.227 0-2.453-.242-3.62-.725-2.335-.967-4.153-2.785-5.12-5.119-1.996-4.818.301-10.362 5.12-12.358 4.82-1.996 10.364.301 12.36 5.119 1.996 4.819-.301 10.362-5.12 12.358zm2.556-11.296c-1.066-2.571-3.56-4.126-6.185-4.126-.851 0-1.715.164-2.549.509-3.405 1.41-5.028 5.328-3.618 8.732.684 1.649 1.969 2.934 3.618 3.617 1.65.683 3.467.683 5.116 0 3.405-1.41 5.028-5.327 3.618-8.732z"/></svg>