<svg xmlns="http://www.w3.org/2000/svg" width="149" height="123"><defs><filter id="a"><feFlood flood-color="#ff8400" flood-opacity="1" result="floodOut"/><feComposite operator="atop" in="floodOut" in2="SourceGraphic" result="compOut"/><feBlend in="compOut" in2="SourceGraphic"/></filter><filter id="b"><feFlood flood-color="#ff8400" flood-opacity="1" result="floodOut"/><feComposite operator="atop" in="floodOut" in2="SourceGraphic" result="compOut"/><feBlend in="compOut" in2="SourceGraphic"/></filter><linearGradient id="c" x1="77.715%" x2="0%" y1="62.932%" y2="0%"><stop offset="0%" stop-color="#ff8400"/><stop offset="100%" stop-color="#fb3d3c"/></linearGradient></defs><path fill-rule="evenodd" opacity=".149" fill="#ff8400" d="M127.073 65.104c-1.886 3.276-6.062 4.398-9.328 2.507l-16.557-9.589c3.265 1.892 4.384 6.081 2.499 9.356-1.886 3.276-6.062 4.399-9.328 2.507l-34.692-20.091c-3.266-1.891-4.385-6.08-2.5-9.356 1.886-3.276 6.062-4.399 9.328-2.507l25.236 14.615-41.005-23.748c-3.266-1.891-4.385-6.08-2.5-9.356 1.886-3.276 6.062-4.398 9.328-2.507l67.019 38.813c3.266 1.891 4.385 6.08 2.5 9.356zm-13.657 23.727c-1.886 3.276-6.062 4.398-9.328 2.507l-46.297-26.812 29.74 17.223c3.266 1.891 4.385 6.08 2.499 9.356-1.886 3.276-6.062 4.398-9.328 2.507l-34.692-20.091c-3.266-1.892-4.385-6.08-2.499-9.356 1.885-3.276 6.061-4.399 9.327-2.507l-15.769-9.133c-3.266-1.891-4.385-6.08-2.499-9.356 1.885-3.276 6.061-4.399 9.327-2.507l67.02 38.813c3.266 1.891 4.385 6.08 2.499 9.356zm-13.657 23.727c-1.885 3.275-6.061 4.398-9.327 2.506l-67.02-38.812c-3.265-1.891-4.384-6.081-2.499-9.357 1.886-3.276 6.062-4.398 9.328-2.507l67.019 38.813c3.266 1.892 4.385 6.081 2.499 9.357z"/><path stroke="#fff" stroke-width="2" opacity=".149" d="M122.5 110c3.037 0 5.5 2.462 5.5 5.5 0 3.037-2.463 5.5-5.5 5.5-3.038 0-5.5-2.463-5.5-5.5 0-3.038 2.462-5.5 5.5-5.5z" filter="url(#a)" fill="none"/><path stroke="#fff" stroke-width="2" d="M122.5 110c3.037 0 5.5 2.462 5.5 5.5 0 3.037-2.463 5.5-5.5 5.5-3.038 0-5.5-2.463-5.5-5.5 0-3.038 2.462-5.5 5.5-5.5z" fill="none"/><path stroke="#fff" stroke-width="2" opacity=".149" d="M82.5 1c3.038 0 5.5 2.462 5.5 5.5s-2.462 5.5-5.5 5.5-5.5-2.462-5.5-5.5 2.462-5.5 5.5-5.5z" filter="url(#b)" fill="none"/><path stroke="#fff" stroke-width="2" d="M82.5 1c3.038 0 5.5 2.462 5.5 5.5s-2.462 5.5-5.5 5.5-5.5-2.462-5.5-5.5 2.462-5.5 5.5-5.5z" fill="none"/><path fill-rule="evenodd" opacity=".149" fill="#ff8400" d="M138.343 61.131c-.028.13-.008.281.033.384.056.137.145.261.256.336.222.151.472.171.715.075.173-.068.319-.205.403-.397.314-.72.233-1.522.526-2.194l.9-2.063c.314-.72 1.147-1.049 1.874-.74l.437.185c1.116.473 1.855 1.611 2.957 2.049.291.124.61.117.854.021.312-.123.604-.398.688-.788.035-.213.022-.446-.061-.651-.082-.206-.234-.384-.408-.515-1.059-.733-2.586-.329-3.799-.843l-.388-.164c-.728-.309-1.059-1.131-.745-1.851l.733-1.679c.376-.864 1.322-1.515 1.469-2.448.029-.13.008-.281-.033-.384-.055-.137-.145-.26-.256-.335-.222-.151-.471-.172-.715-.076-.173.069-.319.206-.403.398-.377.863-.393 1.823-.783 2.653l-.691 1.583c-.314.72-1.147 1.049-1.875.74l-1.843-.781c-.825-.35-1.454-1.213-2.362-1.371-.264-.055-.576.068-.73.288-.153.219-.174.466-.078.706.069.171.208.315.402.397l2.717.755 1.601.678c.728.309 1.059 1.131.745 1.851l-.984 2.255c-.279.706-1.044 1.206-1.156 1.926zm-136.265-14.923c-.059.119-.076.27-.06.38.02.147.078.288.167.388.179.2.416.28.675.245.185-.024.36-.122.487-.288.479-.623.593-1.421 1.04-2.002l1.37-1.786c.479-.622 1.367-.741 1.998-.266l.38.285c.968.728 1.412 2.01 2.375 2.702.253.19.564.26.823.226.333-.045.683-.241.859-.599.085-.198.129-.428.098-.647-.031-.22-.136-.429-.272-.598-.852-.967-2.431-.942-3.484-1.734l-.337-.253c-.632-.475-.755-1.353-.277-1.976l1.116-1.453c.574-.747 1.648-1.151 2.017-2.02.058-.12.075-.272.059-.381-.02-.147-.078-.288-.167-.388-.179-.2-.416-.28-.675-.245-.185.024-.36.122-.487.288-.574.748-.821 1.675-1.4 2.386l-1.052 1.37c-.479.623-1.367.741-1.998.266l-1.601-1.202c-.716-.538-1.118-1.528-1.962-1.9-.243-.117-.576-.073-.777.103-.202.176-.282.41-.246.667.026.183.125.356.294.482l2.455 1.387 1.39 1.045c.632.475.755 1.353.277 1.976l-1.499 1.951c-.441.618-1.304.919-1.586 1.591z"/><path fill-rule="evenodd" d="M100.691 100.98c-2.346 0-4.254-1.909-4.254-4.255v-19.257c-1.62-.049-2.926-1.38-2.926-3.014v-18.624c.001-6.819 3.464-13.031 9.264-16.617.668-.414 1.544-.207 1.957.461.179.29.241.619.2.932l.012-.005v35.444l.001.007v20.673c0 2.346-1.909 4.255-4.254 4.255zm1.41-57.757c-3.638 3.142-5.746 7.692-5.746 12.61l-.001.002v18.62c0 .096.079.174.175.175h5.572v-31.407zm0 34.251h-2.821v19.251c0 .778.633 1.411 1.411 1.411s1.41-.633 1.41-1.411v-19.251zm-21.534-12.264h-.254l1.995 29.989c.1 1.495-.43 2.981-1.454 4.077-1.025 1.095-2.473 1.724-3.972 1.724-1.5 0-2.948-.629-3.972-1.724-1.025-1.096-1.555-2.582-1.455-4.078l1.995-29.988h-.253c-2.317 0-4.203-1.886-4.203-4.204v-20.584c0-.785.637-1.422 1.422-1.422.785 0 1.422.637 1.422 1.422v16.154h3.622v-16.154c0-.785.637-1.422 1.422-1.422.785 0 1.422.637 1.422 1.422v16.154h3.622v-16.154c0-.785.637-1.422 1.422-1.422.785 0 1.421.637 1.422 1.422v20.584c0 2.318-1.886 4.204-4.203 4.204zm-5.581 32.123c.497.53 1.17.823 1.896.823s1.399-.293 1.895-.823c.496-.531.742-1.221.694-1.945l-2.007-30.178h-1.164l-2.008 30.178c-.048.724.199 1.414.694 1.945zm6.94-37.913h-10.088v1.586c0 .75.61 1.359 1.359 1.359h7.37c.749 0 1.359-.609 1.359-1.359v-1.586zm-25.424 4.197l2.091 31.443c.102 1.532-.441 3.054-1.49 4.176-1.049 1.121-2.53 1.764-4.065 1.764-1.536 0-3.018-.644-4.067-1.765-1.049-1.121-1.592-2.643-1.49-4.175l2.09-31.443c-1.367-.652-2.612-1.692-3.654-3.082-1.781-2.375-2.762-5.511-2.762-8.831 0-3.319.981-6.455 2.762-8.831 1.873-2.497 4.402-3.873 7.12-3.873s5.247 1.376 7.12 3.873c1.781 2.376 2.762 5.513 2.762 8.831 0 3.32-.981 6.456-2.762 8.832-1.042 1.389-2.287 2.43-3.655 3.081zm-5.455 33.675c.521.557 1.228.864 1.99.864.763 0 1.469-.307 1.99-.863.521-.557.779-1.283.729-2.044l-2.053-30.871c-.221.018-.442.031-.666.031-.224 0-.446-.013-.667-.031l-2.053 30.871c-.05.761.209 1.486.73 2.043zm1.99-55.448c-3.881 0-7.039 4.423-7.039 9.86 0 4.663 2.324 8.578 5.433 9.599l.121.039c.479.145.976.223 1.485.223 3.881 0 7.039-4.424 7.039-9.861s-3.158-9.86-7.039-9.86z"/><path fill="url(#c)" d="M100.691 100.98c-2.346 0-4.254-1.909-4.254-4.255v-19.257c-1.62-.049-2.926-1.38-2.926-3.014v-18.624c.001-6.819 3.464-13.031 9.264-16.617.668-.414 1.544-.207 1.957.461.179.29.241.619.2.932l.012-.005v35.444l.001.007v20.673c0 2.346-1.909 4.255-4.254 4.255zm1.41-57.757c-3.638 3.142-5.746 7.692-5.746 12.61l-.001.002v18.62c0 .096.079.174.175.175h5.572v-31.407zm0 34.251h-2.821v19.251c0 .778.633 1.411 1.411 1.411s1.41-.633 1.41-1.411v-19.251zm-21.534-12.264h-.254l1.995 29.989c.1 1.495-.43 2.981-1.454 4.077-1.025 1.095-2.473 1.724-3.972 1.724-1.5 0-2.948-.629-3.972-1.724-1.025-1.096-1.555-2.582-1.455-4.078l1.995-29.988h-.253c-2.317 0-4.203-1.886-4.203-4.204v-20.584c0-.785.637-1.422 1.422-1.422.785 0 1.422.637 1.422 1.422v16.154h3.622v-16.154c0-.785.637-1.422 1.422-1.422.785 0 1.422.637 1.422 1.422v16.154h3.622v-16.154c0-.785.637-1.422 1.422-1.422.785 0 1.421.637 1.422 1.422v20.584c0 2.318-1.886 4.204-4.203 4.204zm-5.581 32.123c.497.53 1.17.823 1.896.823s1.399-.293 1.895-.823c.496-.531.742-1.221.694-1.945l-2.007-30.178h-1.164l-2.008 30.178c-.048.724.199 1.414.694 1.945zm6.94-37.913h-10.088v1.586c0 .75.61 1.359 1.359 1.359h7.37c.749 0 1.359-.609 1.359-1.359v-1.586zm-25.424 4.197l2.091 31.443c.102 1.532-.441 3.054-1.49 4.176-1.049 1.121-2.53 1.764-4.065 1.764-1.536 0-3.018-.644-4.067-1.765-1.049-1.121-1.592-2.643-1.49-4.175l2.09-31.443c-1.367-.652-2.612-1.692-3.654-3.082-1.781-2.375-2.762-5.511-2.762-8.831 0-3.319.981-6.455 2.762-8.831 1.873-2.497 4.402-3.873 7.12-3.873s5.247 1.376 7.12 3.873c1.781 2.376 2.762 5.513 2.762 8.831 0 3.32-.981 6.456-2.762 8.832-1.042 1.389-2.287 2.43-3.655 3.081zm-5.455 33.675c.521.557 1.228.864 1.99.864.763 0 1.469-.307 1.99-.863.521-.557.779-1.283.729-2.044l-2.053-30.871c-.221.018-.442.031-.666.031-.224 0-.446-.013-.667-.031l-2.053 30.871c-.05.761.209 1.486.73 2.043zm1.99-55.448c-3.881 0-7.039 4.423-7.039 9.86 0 4.663 2.324 8.578 5.433 9.599l.121.039c.479.145.976.223 1.485.223 3.881 0 7.039-4.424 7.039-9.861s-3.158-9.86-7.039-9.86z"/></svg>