<svg xmlns="http://www.w3.org/2000/svg" width="149" height="123"><defs><filter id="a"><feFlood flood-color="#ff8400" flood-opacity="1" result="floodOut"/><feComposite operator="atop" in="floodOut" in2="SourceGraphic" result="compOut"/><feBlend in="compOut" in2="SourceGraphic"/></filter><filter id="b"><feFlood flood-color="#ff8400" flood-opacity="1" result="floodOut"/><feComposite operator="atop" in="floodOut" in2="SourceGraphic" result="compOut"/><feBlend in="compOut" in2="SourceGraphic"/></filter><linearGradient id="c" x1="77.715%" x2="0%" y1="62.932%" y2="0%"><stop offset="0%" stop-color="#ff8400"/><stop offset="100%" stop-color="#fb3d3c"/></linearGradient></defs><path fill-rule="evenodd" opacity=".149" fill="#ff8400" d="M127.073 65.104c-1.886 3.276-6.062 4.399-9.328 2.507l-16.557-9.588c3.265 1.891 4.384 6.08 2.499 9.356-1.886 3.275-6.062 4.398-9.328 2.507l-34.692-20.092c-3.266-1.891-4.385-6.08-2.5-9.356 1.886-3.276 6.062-4.399 9.328-2.507l24.455 14.162-40.224-23.295c-3.266-1.891-4.385-6.08-2.5-9.356 1.886-3.276 6.062-4.398 9.328-2.507l67.019 38.813c3.266 1.891 4.385 6.08 2.5 9.356zm-13.657 23.727c-1.886 3.276-6.062 4.398-9.328 2.507l-48.713-28.211 32.156 18.622c3.266 1.891 4.385 6.08 2.499 9.356-1.886 3.276-6.062 4.398-9.328 2.507l-34.692-20.091c-3.266-1.892-4.385-6.08-2.499-9.356 1.885-3.276 6.061-4.399 9.327-2.507l-15.769-9.133c-3.266-1.891-4.385-6.08-2.499-9.356 1.885-3.276 6.061-4.399 9.327-2.507l67.02 38.813c3.266 1.891 4.385 6.08 2.499 9.356zm-13.657 23.727c-1.885 3.275-6.061 4.398-9.327 2.507l-67.02-38.813c-3.265-1.891-4.384-6.081-2.499-9.357 1.886-3.275 6.062-4.398 9.328-2.507l67.019 38.813c3.266 1.892 4.385 6.081 2.499 9.357z"/><path stroke="#fff" stroke-width="2" opacity=".149" d="M122.5 110c3.038 0 5.5 2.462 5.5 5.5 0 3.037-2.462 5.5-5.5 5.5s-5.5-2.463-5.5-5.5c0-3.038 2.462-5.5 5.5-5.5z" filter="url(#a)" fill="none"/><path stroke="#fff" stroke-width="2" d="M122.5 110c3.038 0 5.5 2.462 5.5 5.5 0 3.037-2.462 5.5-5.5 5.5s-5.5-2.463-5.5-5.5c0-3.038 2.462-5.5 5.5-5.5z" fill="none"/><path stroke="#fff" stroke-width="2" opacity=".149" d="M82.5 1c3.037 0 5.5 2.462 5.5 5.5s-2.463 5.5-5.5 5.5c-3.038 0-5.5-2.462-5.5-5.5s2.462-5.5 5.5-5.5z" filter="url(#b)" fill="none"/><path stroke="#fff" stroke-width="2" d="M82.5 1c3.037 0 5.5 2.462 5.5 5.5s-2.463 5.5-5.5 5.5c-3.038 0-5.5-2.462-5.5-5.5s2.462-5.5 5.5-5.5z" fill="none"/><path fill-rule="evenodd" opacity=".149" fill="#ff8400" d="M138.343 61.131c-.028.131-.008.281.033.384.055.137.145.26.256.336.222.151.471.171.715.075.173-.068.319-.205.403-.397.314-.72.233-1.522.526-2.194l.9-2.063c.314-.72 1.147-1.049 1.875-.74l.436.185c1.116.473 1.855 1.611 2.957 2.049.291.124.61.117.853.021.313-.123.605-.398.689-.788.035-.213.022-.446-.061-.652-.082-.205-.235-.383-.408-.514-1.059-.733-2.586-.329-3.799-.843l-.388-.164c-.728-.309-1.059-1.131-.745-1.851l.733-1.679c.376-.864 1.321-1.515 1.469-2.448.028-.13.008-.281-.033-.384-.055-.137-.145-.26-.256-.335-.222-.151-.471-.172-.714-.076-.174.069-.32.206-.404.398-.377.863-.393 1.823-.783 2.653l-.691 1.583c-.314.72-1.147 1.049-1.875.74l-1.843-.781c-.825-.35-1.454-1.213-2.363-1.371-.263-.055-.576.068-.729.288-.153.219-.174.466-.078.706.069.171.208.315.402.397l2.717.755 1.601.678c.728.308 1.059 1.131.745 1.851l-.984 2.255c-.279.706-1.044 1.207-1.156 1.926zm-136.265-14.923c-.059.119-.076.271-.06.38.02.147.078.288.167.388.179.2.416.28.675.246.185-.025.36-.123.487-.289.479-.623.593-1.421 1.04-2.002l1.37-1.786c.479-.622 1.367-.741 1.999-.266l.379.285c.968.728 1.412 2.01 2.375 2.702.253.19.564.26.823.226.333-.045.683-.241.859-.599.085-.198.129-.428.098-.647-.031-.22-.136-.429-.272-.598-.852-.967-2.431-.942-3.484-1.734l-.337-.253c-.632-.475-.755-1.353-.277-1.976l1.116-1.453c.574-.747 1.648-1.151 2.017-2.02.058-.12.075-.272.059-.381-.02-.147-.078-.288-.167-.388-.179-.2-.416-.28-.675-.245-.185.024-.36.122-.487.288-.574.748-.821 1.675-1.4 2.386l-1.052 1.37c-.479.623-1.367.741-1.998.266l-1.601-1.202c-.716-.539-1.118-1.528-1.962-1.9-.243-.117-.575-.073-.777.103-.202.176-.282.41-.246.667.026.183.125.356.294.482l2.455 1.387 1.39 1.045c.632.475.755 1.353.277 1.976l-1.499 1.951c-.441.618-1.303.919-1.586 1.591z"/><path fill-rule="evenodd" d="M102.521 58.325l-28.831 28.989c-.182.183-.407.315-.655.384l-9.391 2.62-.374.05h-7.626c-.822 0-1.488-.67-1.488-1.496 0-.827.666-1.497 1.488-1.497h6.494l2.299-8.323c.068-.249.2-.475.381-.658l.024-.024h-9.198c-.822 0-1.488-.67-1.488-1.496 0-.827.666-1.496 1.488-1.496h12.174l8.956-9.006h-21.13c-.822 0-1.488-.67-1.488-1.496s.666-1.496 1.488-1.496h24.106l13.899-13.975c1.963-1.973 5.157-1.974 7.121 0l1.751 1.761c1.963 1.973 1.963 5.185 0 7.159zm-35.899 23.999l-1.215 4.398 4.374-1.221-3.159-3.177zm25.152-26.801l-23.799 23.929 4.662 4.688 23.8-23.929-4.663-4.688zm8.642-2.242l-1.751-1.76c-.802-.807-2.109-.807-2.912 0l-1.875 1.885 4.663 4.689 1.875-1.886c.803-.807.803-2.12 0-2.928zm-9.35-4.781c-.822 0-1.488-.67-1.488-1.496v-4.722c0-.154-.124-.279-.277-.279h-29.992v9.124c0 1.803-1.459 3.271-3.253 3.271h-9.074v43.33c0 .154.125.28.278.28h42.041c.153 0 .277-.126.277-.28v-22.845c0-.826.666-1.496 1.488-1.496s1.488.67 1.488 1.496v22.845c0 1.804-1.459 3.272-3.253 3.272h-42.041c-1.794 0-3.254-1.468-3.254-3.272v-44.827c0-.396.157-.777.436-1.058l12.327-12.395c.279-.28.657-.438 1.052-.438h31.48c1.794 0 3.253 1.468 3.253 3.272v4.722c0 .826-.666 1.496-1.488 1.496zm-34.733-4.381l-7.246 7.286h6.969c.153 0 .277-.125.277-.278v-7.008z"/><path fill="url(#c)" d="M102.521 58.325l-28.831 28.989c-.182.183-.407.315-.655.384l-9.391 2.62-.374.05h-7.626c-.822 0-1.488-.67-1.488-1.496 0-.827.666-1.497 1.488-1.497h6.494l2.299-8.323c.068-.249.2-.475.381-.658l.024-.024h-9.198c-.822 0-1.488-.67-1.488-1.496 0-.827.666-1.496 1.488-1.496h12.174l8.956-9.006h-21.13c-.822 0-1.488-.67-1.488-1.496s.666-1.496 1.488-1.496h24.106l13.899-13.975c1.963-1.973 5.157-1.974 7.121 0l1.751 1.761c1.963 1.973 1.963 5.185 0 7.159zm-35.899 23.999l-1.215 4.398 4.374-1.221-3.159-3.177zm25.152-26.801l-23.799 23.929 4.662 4.688 23.8-23.929-4.663-4.688zm8.642-2.242l-1.751-1.76c-.802-.807-2.109-.807-2.912 0l-1.875 1.885 4.663 4.689 1.875-1.886c.803-.807.803-2.12 0-2.928zm-9.35-4.781c-.822 0-1.488-.67-1.488-1.496v-4.722c0-.154-.124-.279-.277-.279h-29.992v9.124c0 1.803-1.459 3.271-3.253 3.271h-9.074v43.33c0 .154.125.28.278.28h42.041c.153 0 .277-.126.277-.28v-22.845c0-.826.666-1.496 1.488-1.496s1.488.67 1.488 1.496v22.845c0 1.804-1.459 3.272-3.253 3.272h-42.041c-1.794 0-3.254-1.468-3.254-3.272v-44.827c0-.396.157-.777.436-1.058l12.327-12.395c.279-.28.657-.438 1.052-.438h31.48c1.794 0 3.253 1.468 3.253 3.272v4.722c0 .826-.666 1.496-1.488 1.496zm-34.733-4.381l-7.246 7.286h6.969c.153 0 .277-.125.277-.278v-7.008z"/></svg>