<svg xmlns="http://www.w3.org/2000/svg" width="301.5" height="592.5"><path stroke="#fff" stroke-width="3" d="M36.5 1.5h227c19.33 0 35 15.67 35 35v518c0 19.33-15.67 35-35 35h-227c-19.33 0-35-15.67-35-35v-518c0-19.33 15.67-35 35-35z" fill="none"/><path fill-rule="evenodd" fill-opacity=".251" fill="#fff" d="M20.5 68.5h260c2.761 0 5 2.238 5 5v429c0 2.761-2.239 5-5 5h-260c-2.761 0-5-2.239-5-5v-429c0-2.762 2.239-5 5-5z"/><path stroke="#fff" stroke-width="3" d="M150.5 522.5c12.702 0 23 10.297 23 23 0 12.702-10.298 23-23 23-12.703 0-23-10.298-23-23 0-12.703 10.297-23 23-23z" fill="none"/><path fill-rule="evenodd" fill-opacity=".549" fill="#fff" d="M115 41.5h70c1.381 0 2.5 1.119 2.5 2.5 0 1.38-1.119 2.5-2.5 2.5h-70c-1.381 0-2.5-1.12-2.5-2.5 0-1.381 1.119-2.5 2.5-2.5z"/><path fill-rule="evenodd" fill="#fff" d="M150 22.5c2.485 0 4.5 2.015 4.5 4.5s-2.015 4.5-4.5 4.5-4.5-2.015-4.5-4.5 2.015-4.5 4.5-4.5z"/></svg>