<svg xmlns="http://www.w3.org/2000/svg" width="40" height="31"><path fill-rule="evenodd" d="M37.07 16.306v2.958h-2.512v-2.958h-2.93v-2.537h2.93v-2.959h2.512v2.959h2.93v2.537h-2.93zm-21.721 14.693c-8.477 0-15.349-6.939-15.349-15.499s6.872-15.5 15.349-15.5c4.182 0 7.972 1.69 10.741 4.429l-3.467 3.805c-1.854-1.894-4.428-3.067-7.274-3.067-5.652 0-10.233 4.626-10.233 10.333 0 5.706 4.581 10.333 10.233 10.333 4.582 0 8.459-3.041 9.763-7.233h-8.74v-4.822h14.326v4.822c-1.423 7.074-7.924 12.399-15.349 12.399z"/></svg>
