<svg xmlns="http://www.w3.org/2000/svg" width="31" height="31"><path fill-rule="evenodd" d="M22.445 31h-13.89c-4.717 0-8.555-3.838-8.555-8.555v-13.89c0-4.717 3.838-8.555 8.555-8.555h13.89c4.717 0 8.555 3.838 8.555 8.555v13.89c0 4.717-3.838 8.555-8.555 8.555zm5.804-8.555v-13.89c0-3.201-2.604-5.805-5.804-5.805h-13.89c-3.201 0-5.805 2.604-5.805 5.805v13.89c0 3.201 2.604 5.804 5.805 5.804h13.89c3.201 0 5.805-2.603 5.805-5.804h-.001zm-4.426-13.231c-.53 0-1.051-.216-1.425-.59-.376-.376-.592-.897-.592-1.427 0-.532.216-1.053.592-1.426.374-.377.895-.591 1.425-.591.532 0 1.052.214 1.426.591.376.373.591.894.591 1.426 0 .53-.215 1.051-.591 1.427-.376.374-.894.59-1.426.59zm-8.323 14.274c-4.405 0-7.988-3.583-7.988-7.988 0-4.404 3.583-7.988 7.988-7.988 4.404 0 7.988 3.584 7.988 7.988 0 4.405-3.584 7.988-7.988 7.988zm0-13.226c-2.888 0-5.238 2.35-5.238 5.238 0 2.888 2.35 5.237 5.238 5.237 2.888 0 5.237-2.349 5.237-5.237s-2.349-5.238-5.237-5.238z"/></svg>
