<svg xmlns="http://www.w3.org/2000/svg" width="17" height="31"><path fill-rule="evenodd" d="M16.36.006l-4.078-.007c-4.581 0-7.541 2.995-7.541 7.63v3.518h-4.1c-.354 0-.641.282-.641.632v5.097c0 .349.287.632.641.632h4.1v12.86c0 .349.287.632.641.632h5.349c.354 0 .641-.283.641-.632v-12.86h4.793c.355 0 .641-.283.641-.632l.002-5.097c0-.168-.067-.329-.187-.447-.121-.119-.284-.185-.454-.185h-4.795v-2.983c0-1.433.347-2.16 2.24-2.16l2.747-.001c.354 0 .641-.284.641-.632v-4.733c0-.349-.287-.632-.64-.632z"/></svg>
