<svg xmlns="http://www.w3.org/2000/svg" width="28" height="31"><path fill-rule="evenodd" d="M26.707 13.29l-22.867-12.956c-.394-.223-.833-.334-1.272-.334l-.026.001-.177.008-.079.008-.137.019-.05.007.001.001c-.285.052-.563.151-.821.3-.792.455-1.279 1.293-1.279 2.2v25.911c0 .907.487 1.745 1.279 2.201.258.148.536.248.821.3l-.001.001.045.006.147.02.074.007.174.009.029.001c.439 0 .878-.111 1.272-.335l22.867-12.956c.8-.452 1.293-1.295 1.293-2.208v-.003c0-.912-.493-1.755-1.293-2.208zm-9.043-2.573l-2.274 2.956-5.784-7.521 8.058 4.565zm7.934 5.07l-15.992 9.061 10.013-13.021 5.979 3.388c.104.058.168.168.168.286 0 .118-.064.228-.168.286z"/></svg>
