<svg xmlns="http://www.w3.org/2000/svg" width="25" height="31"><path fill-rule="evenodd" d="M24.978 22.732c-.213.692-.845 2.505-2.106 4.371-1.208 1.788-2.577 3.815-4.807 3.857-1.042.019-1.748-.291-2.432-.592-.695-.304-1.414-.619-2.54-.619-1.183 0-1.938.325-2.667.64-.65.281-1.322.571-2.253.609l-.113.002c-1.979 0-3.424-1.878-4.852-3.97-2.86-4.185-4.504-11.086-1.918-15.634 1.36-2.397 3.827-3.911 6.438-3.95l.079-.001c1.123 0 2.184.427 3.119.803.7.282 1.305.524 1.77.524.415 0 1.016-.24 1.711-.517 1.008-.403 2.262-.905 3.572-.905.168 0 .335.009.497.025 1.114.049 3.884.453 5.691 3.132.038.056.052.126.038.193-.013.068-.053.126-.11.164l-.024.015c-.525.329-3.143 2.145-3.109 5.574.036 4.22 3.481 5.769 3.873 5.932l.019.008c.116.054.173.188.133.311l-.009.028zm-12.215-15.185l-.324-.013c-.118-.009-.213-.101-.229-.22-.248-1.9.693-3.786 1.657-4.917 1.133-1.345 3.03-2.332 4.611-2.397.13-.005.245.094.259.226.184 1.694-.422 3.585-1.621 5.059-1.139 1.395-2.807 2.262-4.353 2.262z"/></svg>
