<svg xmlns="http://www.w3.org/2000/svg"><symbol id="ico_dribbble" viewBox="0 0 64 64"><path d="M32 0C14.355 0 0 14.355 0 32s14.355 32 32 32 32-14.355 32-32S49.645 0 32 0zm28 32.004c-7.77-2.025-14.551-2.107-20.402-.996a131.866 131.866 0 0 0-2.625-5.68c6.141-2.469 11.957-6.104 16.438-11.338C57.516 18.863 60 25.145 60 32v.004zm-9.377-20.856c-4.102 4.898-9.635 8.254-15.5 10.549-4.115-7.799-8.133-13.666-10.357-16.715C27.078 4.361 29.496 4 32 4c7.154 0 13.668 2.719 18.623 7.148zM20.797 6.357c1.805 2.428 6.051 8.42 10.463 16.695-10.928 3.404-22.115 3.586-26.715 3.482 1.801-9.061 7.99-16.554 16.252-20.177zM4 32c0-.494.051-.975.074-1.463a82.43 82.43 0 0 0 2.758.045c5.844 0 16.168-.574 26.307-3.873a136.305 136.305 0 0 1 2.475 5.273c-13.445 4.045-21.23 14.258-24.189 18.941C6.832 45.934 4 39.299 4 32zm10.359 21.717c2.188-3.807 9.328-14.383 22.787-18.129 2.717 6.684 5.047 14.113 6.346 21.918A27.809 27.809 0 0 1 32 60c-6.684 0-12.82-2.361-17.641-6.283zm32.85 1.76c-1.342-7.398-3.529-14.406-6.057-20.752 5.309-.842 11.461-.604 18.52 1.334-1.188 8.125-5.856 15.123-12.463 19.418z"/></symbol><symbol id="ico_facebook" viewBox="0 0 56.693 56.693"><path d="M40.43 21.739h-7.645v-5.014c0-1.883 1.248-2.322 2.127-2.322h5.395V6.125l-7.43-.029c-8.248 0-10.125 6.174-10.125 10.125v5.518h-4.77v8.53h4.77v24.137h10.033V30.269h6.77l.875-8.53z"/></symbol><symbol id="ico_google-plus" viewBox="0 0 192.287 192.287"><path d="M154.389 0h-52.86c-25.87 0-46.916 21.047-46.916 46.918 0 24.991 19.641 45.476 44.296 46.84a28.98 28.98 0 0 0-1.355 8.711c0 2.55.342 5.043.973 7.436a76.013 76.013 0 0 0-5.355-.189c-14.297 0-27.831 4.004-38.112 11.275-11.067 7.828-17.162 18.485-17.162 30.01 0 11.526 6.095 22.184 17.162 30.012 10.28 7.27 23.815 11.275 38.112 11.275 14.298 0 27.833-4.004 38.112-11.275 11.066-7.828 17.161-18.486 17.161-30.012 0-11.524-6.095-22.182-17.161-30.01-3.476-2.459-7.333-4.535-11.458-6.218a14.03 14.03 0 0 1-7.272-12.304c0-5.099 2.772-9.808 7.236-12.288l-.02-.037c16.835-7.131 28.676-23.822 28.676-43.226 0-12.319-4.779-23.538-12.572-31.918h18.516V0zm-20.944 151c0 14.249-18.443 26.287-40.274 26.287-21.83 0-40.273-12.038-40.273-26.287 0-14.248 18.443-26.285 40.273-26.285 21.831 0 40.274 12.037 40.274 26.285zm0-104.082c0 17.599-14.318 31.917-31.917 31.917-17.599 0-31.916-14.318-31.916-31.917C69.612 29.318 83.93 15 101.528 15c17.599 0 31.917 14.318 31.917 31.918z"/></symbol><symbol id="ico_twitter" viewBox="0 0 430.117 430.117"><path d="M381.384 198.639c24.157-1.993 40.543-12.975 46.849-27.876-8.714 5.353-35.764 11.189-50.703 5.631-.732-3.51-1.55-6.844-2.353-9.854-11.383-41.798-50.357-75.472-91.194-71.404a173.448 173.448 0 0 1 9.996-3.691c4.495-1.61 30.868-5.901 26.715-15.21-3.5-8.188-35.722 6.188-41.789 8.067 8.009-3.012 21.254-8.193 22.673-17.396-12.27 1.683-24.315 7.484-33.622 15.919 3.36-3.617 5.909-8.025 6.45-12.769C241.68 90.963 222.563 133.113 207.092 174c-12.148-11.773-22.915-21.044-32.574-26.192-27.097-14.531-59.496-29.692-110.355-48.572-1.561 16.827 8.322 39.201 36.8 54.08-6.17-.826-17.453 1.017-26.477 3.178 3.675 19.277 15.677 35.159 48.169 42.839-14.849.98-22.523 4.359-29.478 11.642 6.763 13.407 23.266 29.186 52.953 25.947-33.006 14.226-13.458 40.571 13.399 36.642C113.713 320.887 41.479 317.409 0 277.828c108.299 147.572 343.716 87.274 378.799-54.866 26.285.224 41.737-9.105 51.318-19.39-15.144 2.57-37.094-.086-48.733-4.933z"/></symbol></svg>