<svg xmlns="http://www.w3.org/2000/svg" viewBox="0 0 192.287 192.287" enable-background="new 0 0 192.287 192.287"><path d="M154.389 0h-52.86c-25.87 0-46.916 21.047-46.916 46.918 0 24.991 19.641 45.476 44.296 46.84-.876 2.782-1.355 5.711-1.355 8.711 0 2.55.342 5.043.973 7.436-1.77-.125-3.556-.189-5.355-.189-14.297 0-27.831 4.004-38.112 11.275-11.067 7.828-17.162 18.485-17.162 30.01 0 11.526 6.095 22.184 17.162 30.012 10.28 7.27 23.815 11.275 38.112 11.275 14.298 0 27.833-4.004 38.112-11.275 11.066-7.828 17.161-18.486 17.161-30.012 0-11.524-6.095-22.182-17.161-30.01-3.476-2.459-7.333-4.535-11.458-6.218-4.49-2.48-7.272-7.168-7.272-12.304 0-5.099 2.772-9.808 7.236-12.288l-.02-.037c16.835-7.131 28.676-23.822 28.676-43.226 0-12.319-4.779-23.538-12.572-31.918h18.516v-15zm-20.944 151c0 14.249-18.443 26.287-40.274 26.287-21.83 0-40.273-12.038-40.273-26.287 0-14.248 18.443-26.285 40.273-26.285 21.831 0 40.274 12.037 40.274 26.285zm0-104.082c0 17.599-14.318 31.917-31.917 31.917-17.599 0-31.916-14.318-31.916-31.917 0-17.6 14.318-31.918 31.916-31.918 17.599 0 31.917 14.318 31.917 31.918z"/></svg>