<svg xmlns="http://www.w3.org/2000/svg" width="46" height="49"><path fill-rule="evenodd" fill="#fff" d="M40.75 2.036c-.466-.466-.466-1.222 0-1.688.466-.466 1.222-.466 1.689 0l.16.161c.467.466.467 1.221 0 1.688-.233.233-.538.349-.844.349-.305 0-.611-.116-.844-.349l-.161-.161zm-.161 13.29c1.905 0 3.454 1.549 3.454 3.452s-1.549 3.451-3.454 3.451c-1.904 0-3.453-1.548-3.453-3.451s1.549-3.452 3.453-3.452zm0 2.387c-.587 0-1.065.478-1.065 1.065s.478 1.065 1.065 1.065c.588 0 1.066-.478 1.066-1.065s-.478-1.065-1.066-1.065zm5.411 14.909v1.431c0 1.864-1.518 3.381-3.383 3.381h-.995v6.435c0 2.829-2.302 5.131-5.133 5.131h-26.978c-2.831 0-5.133-2.302-5.133-5.131v-6.435h-.995c-1.866 0-3.383-1.517-3.383-3.381v-1.431c0-1.865 1.517-3.382 3.383-3.382h.995v-3.527c0-.659.534-1.193 1.194-1.193h34.856c.66 0 1.194.534 1.194 1.193v3.527h.995c1.865 0 3.383 1.517 3.383 3.382zm-41.622-.994h-.995c-.549 0-.995.445-.995.994v1.431c0 .548.446.994.995.994h.995v-3.419zm34.856-4.721h-32.468v16.962c0 1.513 1.231 2.744 2.745 2.744h26.978c1.514 0 2.745-1.231 2.745-2.744v-16.962zm4.378 5.715c0-.549-.446-.994-.995-.994h-.995v3.419h.995c.549 0 .995-.446.995-.994v-1.431zm-6.169-23.058c.305 0 .611-.116.844-.349l.161-.16c.466-.466.466-1.222 0-1.688-.466-.467-1.222-.467-1.688-.001l-.161.161c-.467.466-.467 1.221-.001 1.687.234.233.539.35.845.35zm-9.897 12.596c0 .66.535 1.194 1.194 1.194.659 0 1.194-.534 1.194-1.194 0-.943.768-1.71 1.711-1.71.943 0 1.71.767 1.71 1.71 0 .66.535 1.194 1.194 1.194.66 0 1.194-.534 1.194-1.194 0-2.259-1.838-4.096-4.098-4.096s-4.099 1.837-4.099 4.096zm-22.302-1.786c-.152-.642.245-1.285.887-1.436l12.972-3.066-.229-.968c-.429-1.814.699-3.639 2.514-4.068l1.393-.329c1.815-.429 3.641.698 4.071 2.512l.229.968 12.971-3.066c.642-.151 1.285.246 1.437.887.152.642-.246 1.285-.887 1.436l-33.921 8.017-.276.032c-.541 0-1.031-.37-1.161-.919zm15.954-6.019l.229.968 3.33-.787-.229-.968c-.108-.456-.518-.765-.968-.765l-.229.026-1.394.33c-.534.126-.865.663-.739 1.196z"/></svg>