<svg xmlns="http://www.w3.org/2000/svg"><defs><filter id="a"><feFlood flood-color="#ff8400" flood-opacity="1" result="floodOut"/><feComposite operator="atop" in="floodOut" in2="SourceGraphic" result="compOut"/><feBlend in="compOut" in2="SourceGraphic"/></filter><filter id="b"><feFlood flood-color="#ff8400" flood-opacity="1" result="floodOut"/><feComposite operator="atop" in="floodOut" in2="SourceGraphic" result="compOut"/><feBlend in="compOut" in2="SourceGraphic"/></filter><linearGradient id="c" x1="77.715%" x2="0%" y1="62.932%" y2="0%"><stop offset="0%" stop-color="#ff8400"/><stop offset="100%" stop-color="#fb3d3c"/></linearGradient><filter id="a"><feFlood flood-color="#ff8400" flood-opacity="1" result="floodOut"/><feComposite operator="atop" in="floodOut" in2="SourceGraphic" result="compOut"/><feBlend in="compOut" in2="SourceGraphic"/></filter><filter id="b"><feFlood flood-color="#ff8400" flood-opacity="1" result="floodOut"/><feComposite operator="atop" in="floodOut" in2="SourceGraphic" result="compOut"/><feBlend in="compOut" in2="SourceGraphic"/></filter><linearGradient id="c" x1="77.715%" x2="0%" y1="62.932%" y2="0%"><stop offset="0%" stop-color="#ff8400"/><stop offset="100%" stop-color="#fb3d3c"/></linearGradient><filter id="a"><feFlood flood-color="#ff8400" flood-opacity="1" result="floodOut"/><feComposite operator="atop" in="floodOut" in2="SourceGraphic" result="compOut"/><feBlend in="compOut" in2="SourceGraphic"/></filter><filter id="b"><feFlood flood-color="#ff8400" flood-opacity="1" result="floodOut"/><feComposite operator="atop" in="floodOut" in2="SourceGraphic" result="compOut"/><feBlend in="compOut" in2="SourceGraphic"/></filter><linearGradient id="c" x1="77.715%" x2="0%" y1="62.932%" y2="0%"><stop offset="0%" stop-color="#ff8400"/><stop offset="100%" stop-color="#fb3d3c"/></linearGradient><filter id="a"><feFlood flood-color="#ff8400" flood-opacity="1" result="floodOut"/><feComposite operator="atop" in="floodOut" in2="SourceGraphic" result="compOut"/><feBlend in="compOut" in2="SourceGraphic"/></filter><filter id="b"><feFlood flood-color="#ff8400" flood-opacity="1" result="floodOut"/><feComposite operator="atop" in="floodOut" in2="SourceGraphic" result="compOut"/><feBlend in="compOut" in2="SourceGraphic"/></filter><linearGradient id="c" x1="77.715%" x2="0%" y1="62.932%" y2="0%"><stop offset="0%" stop-color="#ff8400"/><stop offset="100%" stop-color="#fb3d3c"/></linearGradient><filter id="a"><feFlood flood-color="#ff8400" flood-opacity="1" result="floodOut"/><feComposite operator="atop" in="floodOut" in2="SourceGraphic" result="compOut"/><feBlend in="compOut" in2="SourceGraphic"/></filter><filter id="b"><feFlood flood-color="#ff8400" flood-opacity="1" result="floodOut"/><feComposite operator="atop" in="floodOut" in2="SourceGraphic" result="compOut"/><feBlend in="compOut" in2="SourceGraphic"/></filter><linearGradient id="c" x1="77.715%" x2="0%" y1="62.932%" y2="0%"><stop offset="0%" stop-color="#ff8400"/><stop offset="100%" stop-color="#fb3d3c"/></linearGradient><filter id="a"><feFlood flood-color="#ff8400" flood-opacity="1" result="floodOut"/><feComposite operator="atop" in="floodOut" in2="SourceGraphic" result="compOut"/><feBlend in="compOut" in2="SourceGraphic"/></filter><filter id="b"><feFlood flood-color="#ff8400" flood-opacity="1" result="floodOut"/><feComposite operator="atop" in="floodOut" in2="SourceGraphic" result="compOut"/><feBlend in="compOut" in2="SourceGraphic"/></filter><linearGradient id="c" x1="77.715%" x2="0%" y1="62.932%" y2="0%"><stop offset="0%" stop-color="#ff8400"/><stop offset="100%" stop-color="#fb3d3c"/></linearGradient></defs><symbol id="ico_contact-email"><path fill-rule="evenodd" fill="#5c5c5c" d="M37 6.727C37 3.018 33.926 0 30.148 0c-3.062 0-5.66 1.983-6.536 4.709H3.587C1.609 4.709 0 6.289 0 8.231v25.247C0 35.42 1.609 37 3.587 37h25.714c1.978 0 3.587-1.58 3.587-3.522V12.889C35.305 11.848 37 9.479 37 6.727zm-5.482 26.751c0 1.2-.994 2.176-2.216 2.176H3.587c-1.222 0-2.217-.976-2.217-2.176V8.231c0-1.2.995-2.176 2.217-2.176H23.33a7.097 7.097 0 0 0-.034.672c0 3.709 3.074 6.727 6.852 6.727.469 0 .928-.047 1.37-.135v20.159zm.449-21.68l-.411.124-.074.019-.366.079-.192.029-.276.036-.5.024c-3.022 0-5.481-2.415-5.481-5.382 0-.39.047-.792.141-1.195.555-2.394 2.736-4.187 5.34-4.187 3.022 0 5.482 2.415 5.482 5.382 0 2.341-1.534 4.332-3.663 5.071z"/></symbol><symbol id="ico_contact-location"><path fill-rule="evenodd" fill="#5c5c5c" d="M37.001 37H-.002l6.626-14.183h4.544l-1.855-2.733c-3.468-4.711-2.964-12.487 1.091-16.62C12.595 1.23 15.508 0 18.607 0c3.099 0 6.012 1.23 8.203 3.464 4.055 4.133 4.559 11.908 1.077 16.639l-1.843 2.713h4.332L37.001 37zM26.907 19.381c3.159-4.293 2.708-11.316-.952-15.046-1.963-2-4.572-3.102-7.348-3.102-2.775 0-5.385 1.102-7.347 3.102-3.66 3.73-4.111 10.752-.966 15.028l2.346 3.453 5.967 8.784 8.3-12.219zm-1.7 4.668l-6.6 9.718-6.601-9.718H7.388L1.915 35.767h33.17l-5.474-11.718h-4.404zM14.479 11.716c0-2.38 1.901-4.317 4.235-4.317 2.334 0 4.235 1.937 4.235 4.317s-1.901 4.317-4.235 4.317c-2.335 0-4.235-1.937-4.235-4.317zm4.235 3.084c1.668 0 3.025-1.384 3.025-3.084 0-1.7-1.357-3.083-3.025-3.083s-3.025 1.383-3.025 3.083c0 1.7 1.357 3.084 3.025 3.084z"/></symbol><symbol id="ico_contact-phone"><path fill-rule="evenodd" fill="#5c5c5c" d="M35.91 12.918a.616.616 0 1 1-.873-.872 5.91 5.91 0 0 0 0-8.357.616.616 0 1 1 .873-.872c2.788 2.785 2.788 7.317 0 10.101zm-2.599-1.232a.619.619 0 0 1-.873 0 .614.614 0 0 1 0-.872 4.019 4.019 0 0 0 1.184-2.86 4.02 4.02 0 0 0-1.184-2.861.617.617 0 0 1 .873-.872c.997.995 1.545 2.322 1.545 3.733s-.548 2.736-1.545 3.732zM27.256 37H11.705a2.721 2.721 0 0 1-2.719-2.717V2.716A2.721 2.721 0 0 1 11.705 0h15.552a2.721 2.721 0 0 1 2.719 2.716v31.568A2.721 2.721 0 0 1 27.256 37zm1.485-34.284c0-.818-.666-1.483-1.485-1.483H11.705c-.818 0-1.484.665-1.484 1.483V3.7h18.52v-.984zm0 2.217h-18.52v23.433h18.52V4.933zm0 24.667h-18.52v4.684c0 .817.666 1.483 1.484 1.483h15.552c.818 0 1.484-.666 1.484-1.483V29.6zm-9.26 5.55a2.47 2.47 0 0 1-2.469-2.467 2.47 2.47 0 0 1 2.469-2.467 2.47 2.47 0 0 1 2.469 2.467 2.47 2.47 0 0 1-2.469 2.467zm0-3.7c-.681 0-1.235.553-1.235 1.233a1.236 1.236 0 0 0 2.47 0c0-.68-.554-1.233-1.235-1.233zm-2.469-29.6h2.469a.616.616 0 1 1 0 1.233h-2.469a.617.617 0 1 1 0-1.233zm4.321 0h.617a.617.617 0 1 1 0 1.233h-.617a.617.617 0 1 1 0-1.233zM6.524 11.515a.616.616 0 0 1-.873 0c-.997-.996-1.546-2.321-1.546-3.732s.549-2.737 1.546-3.732a.617.617 0 0 1 .873.872 4.013 4.013 0 0 0-1.184 2.86c0 1.081.421 2.098 1.184 2.861a.613.613 0 0 1 0 .871zm-2.599.531a.616.616 0 1 1-.873.872c-2.788-2.784-2.788-7.316 0-10.101a.617.617 0 0 1 .873.872 5.91 5.91 0 0 0 0 8.357z"/></symbol><symbol id="ico_feature-1"><path fill-rule="evenodd" opacity=".149" fill="#ff8400" d="M127.073 65.104a6.818 6.818 0 0 1-9.328 2.507l-16.557-9.589c3.265 1.892 4.384 6.081 2.499 9.356a6.817 6.817 0 0 1-9.328 2.507L59.667 49.794c-3.266-1.891-4.385-6.08-2.5-9.356a6.817 6.817 0 0 1 9.328-2.507l25.236 14.615-41.005-23.748c-3.266-1.891-4.385-6.08-2.5-9.356a6.818 6.818 0 0 1 9.328-2.507l67.019 38.813c3.266 1.891 4.385 6.08 2.5 9.356zm-13.657 23.727a6.818 6.818 0 0 1-9.328 2.507L57.791 64.526l29.74 17.223c3.266 1.891 4.385 6.08 2.499 9.356a6.818 6.818 0 0 1-9.328 2.507L46.01 73.521c-3.266-1.892-4.385-6.08-2.499-9.356a6.815 6.815 0 0 1 9.327-2.507l-15.769-9.133c-3.266-1.891-4.385-6.08-2.499-9.356a6.815 6.815 0 0 1 9.327-2.507l67.02 38.813c3.266 1.891 4.385 6.08 2.499 9.356zm-13.657 23.727a6.816 6.816 0 0 1-9.327 2.506l-67.02-38.812c-3.265-1.891-4.384-6.081-2.499-9.357a6.818 6.818 0 0 1 9.328-2.507l67.019 38.813c3.266 1.892 4.385 6.081 2.499 9.357z"/><path stroke="#fff" stroke-width="2" opacity=".149" d="M122.5 110a5.5 5.5 0 1 1 0 11 5.5 5.5 0 0 1 0-11z" filter="url(#a)" fill="none"/><path stroke="#fff" stroke-width="2" d="M122.5 110a5.5 5.5 0 1 1 0 11 5.5 5.5 0 0 1 0-11z" fill="none"/><path stroke="#fff" stroke-width="2" opacity=".149" d="M82.5 1a5.5 5.5 0 1 1 0 11 5.5 5.5 0 1 1 0-11z" filter="url(#b)" fill="none"/><path stroke="#fff" stroke-width="2" d="M82.5 1a5.5 5.5 0 1 1 0 11 5.5 5.5 0 1 1 0-11z" fill="none"/><path fill-rule="evenodd" opacity=".149" fill="#ff8400" d="M138.343 61.131a.709.709 0 0 0 .033.384.746.746 0 0 0 .256.336.742.742 0 0 0 .715.075.735.735 0 0 0 .403-.397c.314-.72.233-1.522.526-2.194l.9-2.063a1.428 1.428 0 0 1 1.874-.74l.437.185c1.116.473 1.855 1.611 2.957 2.049.291.124.61.117.854.021.312-.123.604-.398.688-.788a1.227 1.227 0 0 0-.061-.651 1.235 1.235 0 0 0-.408-.515c-1.059-.733-2.586-.329-3.799-.843l-.388-.164a1.395 1.395 0 0 1-.745-1.851l.733-1.679c.376-.864 1.322-1.515 1.469-2.448a.7.7 0 0 0-.033-.384.736.736 0 0 0-.256-.335.742.742 0 0 0-.715-.076.74.74 0 0 0-.403.398c-.377.863-.393 1.823-.783 2.653l-.691 1.583a1.43 1.43 0 0 1-1.875.74l-1.843-.781c-.825-.35-1.454-1.213-2.362-1.371a.749.749 0 0 0-.73.288.731.731 0 0 0 .324 1.103l2.717.755 1.601.678a1.395 1.395 0 0 1 .745 1.851l-.984 2.255c-.279.706-1.044 1.206-1.156 1.926zM2.078 46.208a.691.691 0 0 0-.06.38.74.74 0 0 0 .167.388c.179.2.416.28.675.245a.731.731 0 0 0 .487-.288c.479-.623.593-1.421 1.04-2.002l1.37-1.786a1.43 1.43 0 0 1 1.998-.266l.38.285c.968.728 1.412 2.01 2.375 2.702a1.119 1.119 0 0 0 1.682-.373c.085-.198.129-.428.098-.647a1.255 1.255 0 0 0-.272-.598c-.852-.967-2.431-.942-3.484-1.734l-.337-.253a1.395 1.395 0 0 1-.277-1.976l1.116-1.453c.574-.747 1.648-1.151 2.017-2.02a.706.706 0 0 0 .059-.381.74.74 0 0 0-.167-.388.74.74 0 0 0-.675-.245.731.731 0 0 0-.487.288c-.574.748-.821 1.675-1.4 2.386l-1.052 1.37a1.43 1.43 0 0 1-1.998.266l-1.601-1.202c-.716-.538-1.118-1.528-1.962-1.9a.747.747 0 0 0-.777.103.717.717 0 0 0-.246.667.728.728 0 0 0 .294.482l2.455 1.387 1.39 1.045c.632.475.755 1.353.277 1.976l-1.499 1.951c-.441.618-1.304.919-1.586 1.591z"/><path fill-rule="evenodd" d="M100.691 100.98a4.26 4.26 0 0 1-4.254-4.255V77.468a3.02 3.02 0 0 1-2.926-3.014V55.83c.001-6.819 3.464-13.031 9.264-16.617a1.42 1.42 0 0 1 2.157 1.393l.012-.005v35.444l.001.007v20.673a4.26 4.26 0 0 1-4.254 4.255zm1.41-57.757c-3.638 3.142-5.746 7.692-5.746 12.61l-.001.002v18.62c0 .096.079.174.175.175h5.572V43.223zm0 34.251H99.28v19.251c0 .778.633 1.411 1.411 1.411s1.41-.633 1.41-1.411V77.474zM80.567 65.21h-.254l1.995 29.989a5.46 5.46 0 0 1-1.454 4.077A5.461 5.461 0 0 1 76.882 101c-1.5 0-2.948-.629-3.972-1.724a5.458 5.458 0 0 1-1.455-4.078L73.45 65.21h-.253a4.209 4.209 0 0 1-4.203-4.204V40.422a1.422 1.422 0 0 1 2.844 0v16.154h3.622V40.422a1.422 1.422 0 0 1 2.844 0v16.154h3.622V40.422a1.422 1.422 0 0 1 2.844 0v20.584a4.209 4.209 0 0 1-4.203 4.204zm-5.581 32.123c.497.53 1.17.823 1.896.823s1.399-.293 1.895-.823a2.571 2.571 0 0 0 .694-1.945L77.464 65.21H76.3l-2.008 30.178a2.575 2.575 0 0 0 .694 1.945zm6.94-37.913H71.838v1.586c0 .75.61 1.359 1.359 1.359h7.37a1.36 1.36 0 0 0 1.359-1.359V59.42zm-25.424 4.197l2.091 31.443a5.592 5.592 0 0 1-1.49 4.176A5.586 5.586 0 0 1 53.038 101a5.59 5.59 0 0 1-4.067-1.765 5.589 5.589 0 0 1-1.49-4.175l2.09-31.443c-1.367-.652-2.612-1.692-3.654-3.082-1.781-2.375-2.762-5.511-2.762-8.831 0-3.319.981-6.455 2.762-8.831C47.79 40.376 50.319 39 53.037 39s5.247 1.376 7.12 3.873c1.781 2.376 2.762 5.513 2.762 8.831 0 3.32-.981 6.456-2.762 8.832-1.042 1.389-2.287 2.43-3.655 3.081zm-5.455 33.675a2.699 2.699 0 0 0 1.99.864 2.7 2.7 0 0 0 1.99-.863 2.703 2.703 0 0 0 .729-2.044l-2.053-30.871a8.18 8.18 0 0 1-.666.031c-.224 0-.446-.013-.667-.031l-2.053 30.871c-.05.761.209 1.486.73 2.043zm1.99-55.448c-3.881 0-7.039 4.423-7.039 9.86 0 4.663 2.324 8.578 5.433 9.599l.121.039c.479.145.976.223 1.485.223 3.881 0 7.039-4.424 7.039-9.861s-3.158-9.86-7.039-9.86z"/><path fill="url(#c)" d="M100.691 100.98a4.26 4.26 0 0 1-4.254-4.255V77.468a3.02 3.02 0 0 1-2.926-3.014V55.83c.001-6.819 3.464-13.031 9.264-16.617a1.42 1.42 0 0 1 2.157 1.393l.012-.005v35.444l.001.007v20.673a4.26 4.26 0 0 1-4.254 4.255zm1.41-57.757c-3.638 3.142-5.746 7.692-5.746 12.61l-.001.002v18.62c0 .096.079.174.175.175h5.572V43.223zm0 34.251H99.28v19.251c0 .778.633 1.411 1.411 1.411s1.41-.633 1.41-1.411V77.474zM80.567 65.21h-.254l1.995 29.989a5.46 5.46 0 0 1-1.454 4.077A5.461 5.461 0 0 1 76.882 101c-1.5 0-2.948-.629-3.972-1.724a5.458 5.458 0 0 1-1.455-4.078L73.45 65.21h-.253a4.209 4.209 0 0 1-4.203-4.204V40.422a1.422 1.422 0 0 1 2.844 0v16.154h3.622V40.422a1.422 1.422 0 0 1 2.844 0v16.154h3.622V40.422a1.422 1.422 0 0 1 2.844 0v20.584a4.209 4.209 0 0 1-4.203 4.204zm-5.581 32.123c.497.53 1.17.823 1.896.823s1.399-.293 1.895-.823a2.571 2.571 0 0 0 .694-1.945L77.464 65.21H76.3l-2.008 30.178a2.575 2.575 0 0 0 .694 1.945zm6.94-37.913H71.838v1.586c0 .75.61 1.359 1.359 1.359h7.37a1.36 1.36 0 0 0 1.359-1.359V59.42zm-25.424 4.197l2.091 31.443a5.592 5.592 0 0 1-1.49 4.176A5.586 5.586 0 0 1 53.038 101a5.59 5.59 0 0 1-4.067-1.765 5.589 5.589 0 0 1-1.49-4.175l2.09-31.443c-1.367-.652-2.612-1.692-3.654-3.082-1.781-2.375-2.762-5.511-2.762-8.831 0-3.319.981-6.455 2.762-8.831C47.79 40.376 50.319 39 53.037 39s5.247 1.376 7.12 3.873c1.781 2.376 2.762 5.513 2.762 8.831 0 3.32-.981 6.456-2.762 8.832-1.042 1.389-2.287 2.43-3.655 3.081zm-5.455 33.675a2.699 2.699 0 0 0 1.99.864 2.7 2.7 0 0 0 1.99-.863 2.703 2.703 0 0 0 .729-2.044l-2.053-30.871a8.18 8.18 0 0 1-.666.031c-.224 0-.446-.013-.667-.031l-2.053 30.871c-.05.761.209 1.486.73 2.043zm1.99-55.448c-3.881 0-7.039 4.423-7.039 9.86 0 4.663 2.324 8.578 5.433 9.599l.121.039c.479.145.976.223 1.485.223 3.881 0 7.039-4.424 7.039-9.861s-3.158-9.86-7.039-9.86z"/></symbol><symbol id="ico_feature-2"><path fill-rule="evenodd" opacity=".149" fill="#ff8400" d="M127.073 65.104a6.818 6.818 0 0 1-9.328 2.507l-16.557-9.589c3.265 1.892 4.384 6.081 2.499 9.356a6.817 6.817 0 0 1-9.328 2.507L59.667 49.794c-3.266-1.891-4.385-6.08-2.5-9.356a6.817 6.817 0 0 1 9.328-2.507L90.95 52.093 50.726 28.798c-3.266-1.891-4.385-6.08-2.5-9.356a6.818 6.818 0 0 1 9.328-2.507l67.019 38.813c3.266 1.891 4.385 6.08 2.5 9.356zm-13.657 23.727a6.818 6.818 0 0 1-9.328 2.507L55.375 63.127l32.156 18.622c3.266 1.891 4.385 6.08 2.499 9.356a6.818 6.818 0 0 1-9.328 2.507L46.01 73.521c-3.266-1.892-4.385-6.08-2.499-9.356a6.815 6.815 0 0 1 9.327-2.507l-15.769-9.133c-3.266-1.891-4.385-6.08-2.499-9.356a6.815 6.815 0 0 1 9.327-2.507l67.02 38.813c3.266 1.891 4.385 6.08 2.499 9.356zm-13.657 23.727a6.816 6.816 0 0 1-9.327 2.506l-67.02-38.812c-3.265-1.891-4.384-6.081-2.499-9.357a6.818 6.818 0 0 1 9.328-2.507l67.019 38.813c3.266 1.892 4.385 6.081 2.499 9.357z"/><path stroke="#fff" stroke-width="2" opacity=".149" d="M122.5 110a5.5 5.5 0 1 1 0 11 5.5 5.5 0 0 1 0-11z" filter="url(#a)" fill="none"/><path stroke="#fff" stroke-width="2" d="M122.5 110a5.5 5.5 0 1 1 0 11 5.5 5.5 0 0 1 0-11z" fill="none"/><path stroke="#fff" stroke-width="2" opacity=".149" d="M82.5 1a5.5 5.5 0 1 1 0 11 5.5 5.5 0 0 1 0-11z" filter="url(#b)" fill="none"/><path stroke="#fff" stroke-width="2" d="M82.5 1a5.5 5.5 0 1 1 0 11 5.5 5.5 0 0 1 0-11z" fill="none"/><path fill-rule="evenodd" opacity=".149" fill="#ff8400" d="M138.343 61.131a.709.709 0 0 0 .033.384.74.74 0 0 0 .256.336.741.741 0 0 0 .715.075.735.735 0 0 0 .403-.397c.314-.72.233-1.522.526-2.194l.9-2.063a1.43 1.43 0 0 1 1.875-.74l.436.185c1.116.473 1.855 1.611 2.957 2.049.291.124.61.117.853.021.313-.123.605-.398.689-.788a1.227 1.227 0 0 0-.061-.651 1.243 1.243 0 0 0-.408-.515c-1.059-.733-2.586-.329-3.799-.843l-.388-.164a1.395 1.395 0 0 1-.745-1.851l.733-1.679c.376-.864 1.321-1.515 1.469-2.448a.709.709 0 0 0-.033-.384.736.736 0 0 0-.256-.335.74.74 0 0 0-.714-.076.739.739 0 0 0-.404.398c-.377.863-.393 1.823-.783 2.653l-.691 1.583a1.43 1.43 0 0 1-1.875.74l-1.843-.781c-.825-.35-1.454-1.213-2.363-1.371a.747.747 0 0 0-.729.288.731.731 0 0 0 .324 1.103l2.717.755 1.601.678a1.395 1.395 0 0 1 .745 1.851l-.984 2.255c-.279.706-1.044 1.206-1.156 1.926zM2.078 46.208a.691.691 0 0 0-.06.38.74.74 0 0 0 .167.388c.179.2.416.28.675.245a.731.731 0 0 0 .487-.288c.479-.623.593-1.421 1.04-2.002l1.37-1.786a1.432 1.432 0 0 1 1.999-.266l.379.285c.968.728 1.412 2.01 2.375 2.702a1.119 1.119 0 0 0 1.682-.373c.085-.198.129-.428.098-.647a1.255 1.255 0 0 0-.272-.598c-.852-.967-2.431-.942-3.484-1.734l-.337-.253a1.395 1.395 0 0 1-.277-1.976l1.116-1.453c.574-.747 1.648-1.151 2.017-2.02a.706.706 0 0 0 .059-.381.74.74 0 0 0-.167-.388.74.74 0 0 0-.675-.245.731.731 0 0 0-.487.288c-.574.748-.821 1.675-1.4 2.386l-1.052 1.37a1.43 1.43 0 0 1-1.998.266l-1.601-1.202c-.716-.538-1.118-1.528-1.962-1.9a.748.748 0 0 0-.777.103.717.717 0 0 0-.246.667.728.728 0 0 0 .294.482l2.455 1.387 1.39 1.045c.632.475.755 1.353.277 1.976l-1.499 1.951c-.441.618-1.303.919-1.586 1.591z"/><path fill-rule="evenodd" d="M107.935 53.598l-4.601 22.344a3.304 3.304 0 0 1-3.223 2.627H59.426l.969 4.702h39.412a1.646 1.646 0 0 1 0 3.292H60.394a3.303 3.303 0 0 1-3.222-2.627l-7.96-38.655-7.221-3.136a1.646 1.646 0 0 1 1.31-3.019l7.221 3.136a3.292 3.292 0 0 1 1.912 2.355l1.035 5.025h51.244c.993 0 1.923.442 2.55 1.212.628.771.873 1.771.672 2.744zm-53.788-.664l4.602 22.344h41.362l4.602-22.344H54.147zm37.069 8.545H67.641a1.646 1.646 0 0 1 0-3.292h23.575a1.646 1.646 0 0 1 0 3.292zm-22.292 5.255h21.009a1.646 1.646 0 0 1 0 3.291H68.924a1.645 1.645 0 0 1 0-3.291zm.172 22.49a5.9 5.9 0 0 1 5.892 5.895 5.9 5.9 0 0 1-5.892 5.895 5.9 5.9 0 0 1-5.893-5.895 5.9 5.9 0 0 1 5.893-5.895zm0 8.499a2.606 2.606 0 0 0 2.602-2.604 2.607 2.607 0 0 0-2.602-2.604 2.607 2.607 0 0 0-2.603 2.604 2.606 2.606 0 0 0 2.603 2.604zm20.669-8.499a5.901 5.901 0 0 1 5.893 5.895 5.9 5.9 0 0 1-5.893 5.895 5.9 5.9 0 0 1-5.893-5.895 5.901 5.901 0 0 1 5.893-5.895zm0 8.499a2.607 2.607 0 0 0 2.603-2.604 2.607 2.607 0 0 0-2.603-2.604 2.606 2.606 0 0 0-2.602 2.604 2.606 2.606 0 0 0 2.602 2.604z"/><path fill="url(#c)" d="M107.935 53.598l-4.601 22.344a3.304 3.304 0 0 1-3.223 2.627H59.426l.969 4.702h39.412a1.646 1.646 0 0 1 0 3.292H60.394a3.303 3.303 0 0 1-3.222-2.627l-7.96-38.655-7.221-3.136a1.646 1.646 0 0 1 1.31-3.019l7.221 3.136a3.292 3.292 0 0 1 1.912 2.355l1.035 5.025h51.244c.993 0 1.923.442 2.55 1.212.628.771.873 1.771.672 2.744zm-53.788-.664l4.602 22.344h41.362l4.602-22.344H54.147zm37.069 8.545H67.641a1.646 1.646 0 0 1 0-3.292h23.575a1.646 1.646 0 0 1 0 3.292zm-22.292 5.255h21.009a1.646 1.646 0 0 1 0 3.291H68.924a1.645 1.645 0 0 1 0-3.291zm.172 22.49a5.9 5.9 0 0 1 5.892 5.895 5.9 5.9 0 0 1-5.892 5.895 5.9 5.9 0 0 1-5.893-5.895 5.9 5.9 0 0 1 5.893-5.895zm0 8.499a2.606 2.606 0 0 0 2.602-2.604 2.607 2.607 0 0 0-2.602-2.604 2.607 2.607 0 0 0-2.603 2.604 2.606 2.606 0 0 0 2.603 2.604zm20.669-8.499a5.901 5.901 0 0 1 5.893 5.895 5.9 5.9 0 0 1-5.893 5.895 5.9 5.9 0 0 1-5.893-5.895 5.901 5.901 0 0 1 5.893-5.895zm0 8.499a2.607 2.607 0 0 0 2.603-2.604 2.607 2.607 0 0 0-2.603-2.604 2.606 2.606 0 0 0-2.602 2.604 2.606 2.606 0 0 0 2.602 2.604z"/></symbol><symbol id="ico_feature-3"><path fill-rule="evenodd" opacity=".149" fill="#ff8400" d="M127.073 65.104a6.818 6.818 0 0 1-9.328 2.507l-16.557-9.589c3.265 1.892 4.384 6.081 2.499 9.356a6.817 6.817 0 0 1-9.328 2.507L59.667 49.794c-3.266-1.891-4.385-6.08-2.5-9.356a6.817 6.817 0 0 1 9.328-2.507l25.236 14.615-41.005-23.748c-3.266-1.891-4.385-6.08-2.5-9.356a6.818 6.818 0 0 1 9.328-2.507l67.019 38.813c3.266 1.891 4.385 6.08 2.5 9.356zm-13.657 23.727a6.818 6.818 0 0 1-9.328 2.507L57.791 64.526l29.74 17.223c3.266 1.891 4.385 6.08 2.499 9.356a6.818 6.818 0 0 1-9.328 2.507L46.01 73.521c-3.266-1.892-4.385-6.08-2.499-9.356a6.815 6.815 0 0 1 9.327-2.507l-15.769-9.133c-3.266-1.891-4.385-6.08-2.499-9.356a6.815 6.815 0 0 1 9.327-2.507l67.02 38.813c3.266 1.891 4.385 6.08 2.499 9.356zm-13.657 23.727a6.816 6.816 0 0 1-9.327 2.506L23.413 76.252c-3.266-1.891-4.385-6.081-2.5-9.357a6.818 6.818 0 0 1 9.328-2.507l67.019 38.813c3.266 1.892 4.385 6.081 2.499 9.357z"/><path stroke="#fff" stroke-width="2" opacity=".149" d="M122.5 110a5.5 5.5 0 1 1 0 11 5.5 5.5 0 0 1 0-11z" filter="url(#a)" fill="none"/><path stroke="#fff" stroke-width="2" d="M122.5 110a5.5 5.5 0 1 1 0 11 5.5 5.5 0 0 1 0-11z" fill="none"/><path stroke="#fff" stroke-width="2" opacity=".149" d="M82.5 1a5.5 5.5 0 1 1 0 11 5.5 5.5 0 0 1 0-11z" filter="url(#b)" fill="none"/><path stroke="#fff" stroke-width="2" d="M82.5 1a5.5 5.5 0 1 1 0 11 5.5 5.5 0 0 1 0-11z" fill="none"/><path fill-rule="evenodd" opacity=".149" fill="#ff8400" d="M138.343 61.131a.709.709 0 0 0 .033.384.746.746 0 0 0 .256.336.742.742 0 0 0 .715.075.735.735 0 0 0 .403-.397c.314-.72.233-1.522.526-2.194l.9-2.063a1.43 1.43 0 0 1 1.875-.74l.436.185c1.116.473 1.855 1.611 2.957 2.049.291.124.61.117.853.021.313-.123.605-.398.689-.788a1.227 1.227 0 0 0-.061-.651 1.243 1.243 0 0 0-.408-.515c-1.059-.733-2.586-.329-3.799-.843l-.388-.164a1.395 1.395 0 0 1-.745-1.851l.733-1.679c.376-.864 1.321-1.515 1.469-2.448a.7.7 0 0 0-.033-.384.743.743 0 0 0-.256-.335.74.74 0 0 0-.714-.076.739.739 0 0 0-.404.398c-.377.863-.393 1.823-.783 2.653l-.691 1.583a1.43 1.43 0 0 1-1.875.74l-1.843-.781c-.825-.35-1.454-1.213-2.363-1.371a.748.748 0 0 0-.729.288.731.731 0 0 0 .324 1.103l2.717.755 1.601.678a1.395 1.395 0 0 1 .745 1.851l-.984 2.255c-.279.706-1.044 1.206-1.156 1.926zM2.078 46.208a.691.691 0 0 0-.06.38.74.74 0 0 0 .167.388c.179.2.416.28.675.245a.731.731 0 0 0 .487-.288c.479-.623.593-1.421 1.039-2.002l1.371-1.786a1.432 1.432 0 0 1 1.999-.266l.379.285c.968.728 1.412 2.01 2.375 2.702a1.119 1.119 0 0 0 1.682-.373c.085-.198.129-.428.098-.647a1.245 1.245 0 0 0-.272-.598c-.852-.967-2.431-.942-3.484-1.734l-.337-.253a1.395 1.395 0 0 1-.277-1.976l1.116-1.453c.574-.747 1.648-1.151 2.017-2.02a.706.706 0 0 0 .059-.381.74.74 0 0 0-.167-.388.74.74 0 0 0-.675-.245.731.731 0 0 0-.487.288c-.574.748-.821 1.675-1.4 2.386l-1.052 1.37a1.43 1.43 0 0 1-1.998.266l-1.601-1.202c-.716-.538-1.118-1.528-1.962-1.9a.748.748 0 0 0-.777.103.717.717 0 0 0-.246.667.728.728 0 0 0 .294.482l2.455 1.387 1.39 1.045c.632.475.755 1.353.277 1.976l-1.499 1.951c-.441.618-1.303.919-1.586 1.591z"/><path fill-rule="evenodd" d="M103.134 58.29c-.48.072-.972.142-1.467.208-.25.831-.584 1.636-.995 2.4.303.396.602.793.891 1.184a2.212 2.212 0 0 1-.216 2.861l-1.914 1.914a2.212 2.212 0 0 1-2.862.215 91.55 91.55 0 0 1-1.184-.89 12.9 12.9 0 0 1-2.401.994c-.066.496-.135.988-.207 1.467a2.21 2.21 0 0 1-2.175 1.871h-2.708a2.213 2.213 0 0 1-2.176-1.871 99.862 99.862 0 0 1-.207-1.467 12.9 12.9 0 0 1-2.401-.994c-.395.302-.792.601-1.184.89a2.21 2.21 0 0 1-2.861-.215l-1.915-1.914a2.212 2.212 0 0 1-.216-2.861c.29-.391.589-.788.891-1.184a12.92 12.92 0 0 1-.994-2.4 87.876 87.876 0 0 1-1.467-.208 2.21 2.21 0 0 1-1.871-2.175v-2.707c0-1.08.804-2.015 1.871-2.175.479-.072.971-.141 1.467-.207.25-.831.583-1.636.995-2.4a85.347 85.347 0 0 1-.891-1.184 2.212 2.212 0 0 1 .215-2.862l1.915-1.913a2.212 2.212 0 0 1 2.861-.216c.392.29.789.589 1.185.891a12.867 12.867 0 0 1 2.4-.995c.066-.496.136-.988.207-1.466a2.212 2.212 0 0 1 2.176-1.871h2.708a2.21 2.21 0 0 1 2.175 1.871c.072.479.141.971.207 1.466.831.25 1.636.583 2.401.995.395-.302.793-.601 1.184-.891a2.213 2.213 0 0 1 2.862.216l1.914 1.914a2.21 2.21 0 0 1 .216 2.86 96.61 96.61 0 0 1-.891 1.185c.411.764.745 1.569.995 2.4.495.066.987.135 1.467.207a2.213 2.213 0 0 1 1.871 2.175v2.708a2.21 2.21 0 0 1-1.871 2.174zm-.766-4.505c-.436-.063-.88-.124-1.325-.182a2.194 2.194 0 0 1-1.837-1.592 10.258 10.258 0 0 0-.97-2.341 2.194 2.194 0 0 1 .172-2.425c.274-.356.545-.713.808-1.066l-1.381-1.381c-.355.264-.712.535-1.066.807a2.197 2.197 0 0 1-2.427.172 10.24 10.24 0 0 0-2.341-.97 2.194 2.194 0 0 1-1.592-1.836c-.058-.445-.12-.89-.183-1.324h-1.953a94.19 94.19 0 0 0-.183 1.324 2.192 2.192 0 0 1-1.593 1.836c-.815.225-1.603.552-2.34.97-.77.438-1.723.37-2.427-.172a85.345 85.345 0 0 0-1.066-.807l-1.381 1.381c.264.353.534.71.808 1.065.542.704.609 1.657.172 2.426a10.24 10.24 0 0 0-.97 2.341 2.194 2.194 0 0 1-1.837 1.592c-.446.058-.889.119-1.324.182v1.953c.435.064.879.125 1.324.183.881.115 1.602.74 1.837 1.592.225.816.551 1.603.97 2.341.437.769.37 1.721-.172 2.425l-.808 1.066 1.381 1.381a93.5 93.5 0 0 0 1.067-.807 2.193 2.193 0 0 1 2.426-.172c.737.419 1.525.745 2.341.97a2.195 2.195 0 0 1 1.593 1.836c.058.445.119.889.182 1.324h1.954c.063-.435.124-.879.182-1.324.115-.88.74-1.601 1.593-1.836a10.272 10.272 0 0 0 2.34-.971 2.197 2.197 0 0 1 2.427.173c.354.272.712.543 1.066.807l1.381-1.381a99.93 99.93 0 0 0-.808-1.065 2.196 2.196 0 0 1-.172-2.426c.419-.737.746-1.524.97-2.341a2.194 2.194 0 0 1 1.837-1.592c.446-.058.889-.119 1.325-.183v-1.953zM89.25 60.381a5.626 5.626 0 0 1-5.62-5.619c0-3.099 2.521-5.619 5.62-5.619s5.62 2.52 5.62 5.619a5.626 5.626 0 0 1-5.62 5.619zm0-8.741a3.126 3.126 0 0 0-3.122 3.122c0 1.721 1.4 3.121 3.122 3.121 1.721 0 3.122-1.4 3.122-3.121s-1.401-3.122-3.122-3.122zM74.916 64.583c-.183.736-.378 1.487-.579 2.236a17.343 17.343 0 0 1 2.854 2.852c.749-.201 1.5-.395 2.236-.578a2.613 2.613 0 0 1 3.027 1.529l1.425 3.442a2.612 2.612 0 0 1-1.059 3.221c-.648.39-1.317.784-1.989 1.171a17.288 17.288 0 0 1-.001 4.035c.67.386 1.339.78 1.991 1.171a2.616 2.616 0 0 1 1.059 3.222l-1.426 3.441a2.614 2.614 0 0 1-3.027 1.53c-.736-.184-1.488-.378-2.236-.579a17.343 17.343 0 0 1-2.853 2.853c.202.754.396 1.505.578 2.235a2.613 2.613 0 0 1-1.529 3.027l-3.442 1.425a2.615 2.615 0 0 1-3.223-1.058c-.392-.653-.786-1.322-1.171-1.99a17.343 17.343 0 0 1-4.035 0c-.39.675-.784 1.344-1.172 1.99a2.613 2.613 0 0 1-3.223 1.058l-3.442-1.426a2.611 2.611 0 0 1-1.529-3.026c.183-.735.377-1.486.578-2.236a17.304 17.304 0 0 1-2.854-2.852c-.749.201-1.5.396-2.235.578a2.613 2.613 0 0 1-3.027-1.529l-1.426-3.441a2.616 2.616 0 0 1 1.059-3.222c.65-.39 1.319-.784 1.99-1.171a17.28 17.28 0 0 1 .001-4.034c-.67-.387-1.34-.781-1.991-1.172a2.613 2.613 0 0 1-1.058-3.221l1.425-3.442a2.613 2.613 0 0 1 3.027-1.529c.734.183 1.486.377 2.236.579a17.388 17.388 0 0 1 2.853-2.854 127.3 127.3 0 0 1-.578-2.235 2.612 2.612 0 0 1 1.529-3.026l3.442-1.426a2.617 2.617 0 0 1 3.223 1.059c.389.648.783 1.317 1.171 1.989a17.343 17.343 0 0 1 4.035.001c.387-.67.781-1.339 1.172-1.99a2.615 2.615 0 0 1 3.222-1.059l3.442 1.426a2.613 2.613 0 0 1 1.53 3.026zm-2.379 4.35a2.59 2.59 0 0 1-.91-2.726c.193-.718.381-1.438.558-2.144l-3.164-1.31c-.375.625-.752 1.267-1.122 1.909a2.59 2.59 0 0 1-2.571 1.286 14.496 14.496 0 0 0-3.593 0 2.593 2.593 0 0 1-2.569-1.286c-.371-.645-.748-1.286-1.122-1.909l-3.164 1.31c.178.707.365 1.427.558 2.143a2.589 2.589 0 0 1-.908 2.725 14.567 14.567 0 0 0-2.539 2.54 2.594 2.594 0 0 1-2.728.909c-.719-.193-1.439-.38-2.144-.557l-1.311 3.163c.626.376 1.268.752 1.911 1.122a2.592 2.592 0 0 1 1.286 2.571 14.577 14.577 0 0 0-.001 3.591 2.59 2.59 0 0 1-1.286 2.569c-.643.37-1.284.747-1.909 1.122l1.31 3.163c.706-.177 1.426-.364 2.143-.557a2.593 2.593 0 0 1 2.727.907 14.532 14.532 0 0 0 2.54 2.539 2.594 2.594 0 0 1 .909 2.727c-.193.718-.38 1.438-.557 2.144l3.164 1.31a132.9 132.9 0 0 0 1.122-1.91 2.592 2.592 0 0 1 2.571-1.285c1.193.148 2.401.148 3.592 0a2.595 2.595 0 0 1 2.57 1.286c.368.64.745 1.281 1.121 1.909l3.164-1.31a129.27 129.27 0 0 0-.557-2.143 2.59 2.59 0 0 1 .907-2.725 14.573 14.573 0 0 0 2.54-2.54 2.592 2.592 0 0 1 2.728-.909c.716.193 1.437.38 2.144.557l1.31-3.163c-.627-.376-1.269-.753-1.91-1.122a2.59 2.59 0 0 1-1.286-2.571 14.585 14.585 0 0 0 0-3.592 2.592 2.592 0 0 1 1.286-2.569c.644-.37 1.286-.747 1.91-1.121l-1.311-3.163c-.706.177-1.426.364-2.143.557a2.591 2.591 0 0 1-2.726-.908 14.636 14.636 0 0 0-2.54-2.539zm-5.384 20.279a9.455 9.455 0 0 1-3.62.725 9.45 9.45 0 0 1-3.62-.725 9.397 9.397 0 0 1-5.12-5.119c-1.996-4.818.301-10.362 5.12-12.358 4.82-1.996 10.364.301 12.36 5.119 1.996 4.819-.301 10.362-5.12 12.358zm2.556-11.296a6.696 6.696 0 0 0-6.185-4.126c-.851 0-1.715.164-2.549.509a6.691 6.691 0 0 0-3.618 8.732 6.645 6.645 0 0 0 3.618 3.617 6.643 6.643 0 0 0 5.116 0 6.69 6.69 0 0 0 3.618-8.732z"/><path fill="url(#c)" d="M103.134 58.29c-.48.072-.972.142-1.467.208-.25.831-.584 1.636-.995 2.4.303.396.602.793.891 1.184a2.212 2.212 0 0 1-.216 2.861l-1.914 1.914a2.212 2.212 0 0 1-2.862.215 91.55 91.55 0 0 1-1.184-.89 12.9 12.9 0 0 1-2.401.994c-.066.496-.135.988-.207 1.467a2.21 2.21 0 0 1-2.175 1.871h-2.708a2.213 2.213 0 0 1-2.176-1.871 99.862 99.862 0 0 1-.207-1.467 12.9 12.9 0 0 1-2.401-.994c-.395.302-.792.601-1.184.89a2.21 2.21 0 0 1-2.861-.215l-1.915-1.914a2.212 2.212 0 0 1-.216-2.861c.29-.391.589-.788.891-1.184a12.92 12.92 0 0 1-.994-2.4 87.876 87.876 0 0 1-1.467-.208 2.21 2.21 0 0 1-1.871-2.175v-2.707c0-1.08.804-2.015 1.871-2.175.479-.072.971-.141 1.467-.207.25-.831.583-1.636.995-2.4a85.347 85.347 0 0 1-.891-1.184 2.212 2.212 0 0 1 .215-2.862l1.915-1.913a2.212 2.212 0 0 1 2.861-.216c.392.29.789.589 1.185.891a12.867 12.867 0 0 1 2.4-.995c.066-.496.136-.988.207-1.466a2.212 2.212 0 0 1 2.176-1.871h2.708a2.21 2.21 0 0 1 2.175 1.871c.072.479.141.971.207 1.466.831.25 1.636.583 2.401.995.395-.302.793-.601 1.184-.891a2.213 2.213 0 0 1 2.862.216l1.914 1.914a2.21 2.21 0 0 1 .216 2.86 96.61 96.61 0 0 1-.891 1.185c.411.764.745 1.569.995 2.4.495.066.987.135 1.467.207a2.213 2.213 0 0 1 1.871 2.175v2.708a2.21 2.21 0 0 1-1.871 2.174zm-.766-4.505c-.436-.063-.88-.124-1.325-.182a2.194 2.194 0 0 1-1.837-1.592 10.258 10.258 0 0 0-.97-2.341 2.194 2.194 0 0 1 .172-2.425c.274-.356.545-.713.808-1.066l-1.381-1.381c-.355.264-.712.535-1.066.807a2.197 2.197 0 0 1-2.427.172 10.24 10.24 0 0 0-2.341-.97 2.194 2.194 0 0 1-1.592-1.836c-.058-.445-.12-.89-.183-1.324h-1.953a94.19 94.19 0 0 0-.183 1.324 2.192 2.192 0 0 1-1.593 1.836c-.815.225-1.603.552-2.34.97-.77.438-1.723.37-2.427-.172a85.345 85.345 0 0 0-1.066-.807l-1.381 1.381c.264.353.534.71.808 1.065.542.704.609 1.657.172 2.426a10.24 10.24 0 0 0-.97 2.341 2.194 2.194 0 0 1-1.837 1.592c-.446.058-.889.119-1.324.182v1.953c.435.064.879.125 1.324.183.881.115 1.602.74 1.837 1.592.225.816.551 1.603.97 2.341.437.769.37 1.721-.172 2.425l-.808 1.066 1.381 1.381a93.5 93.5 0 0 0 1.067-.807 2.193 2.193 0 0 1 2.426-.172c.737.419 1.525.745 2.341.97a2.195 2.195 0 0 1 1.593 1.836c.058.445.119.889.182 1.324h1.954c.063-.435.124-.879.182-1.324.115-.88.74-1.601 1.593-1.836a10.272 10.272 0 0 0 2.34-.971 2.197 2.197 0 0 1 2.427.173c.354.272.712.543 1.066.807l1.381-1.381a99.93 99.93 0 0 0-.808-1.065 2.196 2.196 0 0 1-.172-2.426c.419-.737.746-1.524.97-2.341a2.194 2.194 0 0 1 1.837-1.592c.446-.058.889-.119 1.325-.183v-1.953zM89.25 60.381a5.626 5.626 0 0 1-5.62-5.619c0-3.099 2.521-5.619 5.62-5.619s5.62 2.52 5.62 5.619a5.626 5.626 0 0 1-5.62 5.619zm0-8.741a3.126 3.126 0 0 0-3.122 3.122c0 1.721 1.4 3.121 3.122 3.121 1.721 0 3.122-1.4 3.122-3.121s-1.401-3.122-3.122-3.122zM74.916 64.583c-.183.736-.378 1.487-.579 2.236a17.343 17.343 0 0 1 2.854 2.852c.749-.201 1.5-.395 2.236-.578a2.613 2.613 0 0 1 3.027 1.529l1.425 3.442a2.612 2.612 0 0 1-1.059 3.221c-.648.39-1.317.784-1.989 1.171a17.288 17.288 0 0 1-.001 4.035c.67.386 1.339.78 1.991 1.171a2.616 2.616 0 0 1 1.059 3.222l-1.426 3.441a2.614 2.614 0 0 1-3.027 1.53c-.736-.184-1.488-.378-2.236-.579a17.343 17.343 0 0 1-2.853 2.853c.202.754.396 1.505.578 2.235a2.613 2.613 0 0 1-1.529 3.027l-3.442 1.425a2.615 2.615 0 0 1-3.223-1.058c-.392-.653-.786-1.322-1.171-1.99a17.343 17.343 0 0 1-4.035 0c-.39.675-.784 1.344-1.172 1.99a2.613 2.613 0 0 1-3.223 1.058l-3.442-1.426a2.611 2.611 0 0 1-1.529-3.026c.183-.735.377-1.486.578-2.236a17.304 17.304 0 0 1-2.854-2.852c-.749.201-1.5.396-2.235.578a2.613 2.613 0 0 1-3.027-1.529l-1.426-3.441a2.616 2.616 0 0 1 1.059-3.222c.65-.39 1.319-.784 1.99-1.171a17.28 17.28 0 0 1 .001-4.034c-.67-.387-1.34-.781-1.991-1.172a2.613 2.613 0 0 1-1.058-3.221l1.425-3.442a2.613 2.613 0 0 1 3.027-1.529c.734.183 1.486.377 2.236.579a17.388 17.388 0 0 1 2.853-2.854 127.3 127.3 0 0 1-.578-2.235 2.612 2.612 0 0 1 1.529-3.026l3.442-1.426a2.617 2.617 0 0 1 3.223 1.059c.389.648.783 1.317 1.171 1.989a17.343 17.343 0 0 1 4.035.001c.387-.67.781-1.339 1.172-1.99a2.615 2.615 0 0 1 3.222-1.059l3.442 1.426a2.613 2.613 0 0 1 1.53 3.026zm-2.379 4.35a2.59 2.59 0 0 1-.91-2.726c.193-.718.381-1.438.558-2.144l-3.164-1.31c-.375.625-.752 1.267-1.122 1.909a2.59 2.59 0 0 1-2.571 1.286 14.496 14.496 0 0 0-3.593 0 2.593 2.593 0 0 1-2.569-1.286c-.371-.645-.748-1.286-1.122-1.909l-3.164 1.31c.178.707.365 1.427.558 2.143a2.589 2.589 0 0 1-.908 2.725 14.567 14.567 0 0 0-2.539 2.54 2.594 2.594 0 0 1-2.728.909c-.719-.193-1.439-.38-2.144-.557l-1.311 3.163c.626.376 1.268.752 1.911 1.122a2.592 2.592 0 0 1 1.286 2.571 14.577 14.577 0 0 0-.001 3.591 2.59 2.59 0 0 1-1.286 2.569c-.643.37-1.284.747-1.909 1.122l1.31 3.163c.706-.177 1.426-.364 2.143-.557a2.593 2.593 0 0 1 2.727.907 14.532 14.532 0 0 0 2.54 2.539 2.594 2.594 0 0 1 .909 2.727c-.193.718-.38 1.438-.557 2.144l3.164 1.31a132.9 132.9 0 0 0 1.122-1.91 2.592 2.592 0 0 1 2.571-1.285c1.193.148 2.401.148 3.592 0a2.595 2.595 0 0 1 2.57 1.286c.368.64.745 1.281 1.121 1.909l3.164-1.31a129.27 129.27 0 0 0-.557-2.143 2.59 2.59 0 0 1 .907-2.725 14.573 14.573 0 0 0 2.54-2.54 2.592 2.592 0 0 1 2.728-.909c.716.193 1.437.38 2.144.557l1.31-3.163c-.627-.376-1.269-.753-1.91-1.122a2.59 2.59 0 0 1-1.286-2.571 14.585 14.585 0 0 0 0-3.592 2.592 2.592 0 0 1 1.286-2.569c.644-.37 1.286-.747 1.91-1.121l-1.311-3.163c-.706.177-1.426.364-2.143.557a2.591 2.591 0 0 1-2.726-.908 14.636 14.636 0 0 0-2.54-2.539zm-5.384 20.279a9.455 9.455 0 0 1-3.62.725 9.45 9.45 0 0 1-3.62-.725 9.397 9.397 0 0 1-5.12-5.119c-1.996-4.818.301-10.362 5.12-12.358 4.82-1.996 10.364.301 12.36 5.119 1.996 4.819-.301 10.362-5.12 12.358zm2.556-11.296a6.696 6.696 0 0 0-6.185-4.126c-.851 0-1.715.164-2.549.509a6.691 6.691 0 0 0-3.618 8.732 6.645 6.645 0 0 0 3.618 3.617 6.643 6.643 0 0 0 5.116 0 6.69 6.69 0 0 0 3.618-8.732z"/></symbol><symbol id="ico_feature-4"><path fill-rule="evenodd" opacity=".149" fill="#ff8400" d="M127.073 65.104a6.817 6.817 0 0 1-9.328 2.507l-16.557-9.589c3.265 1.892 4.384 6.081 2.499 9.357a6.819 6.819 0 0 1-9.328 2.507L59.667 49.794c-3.266-1.891-4.385-6.08-2.5-9.356a6.817 6.817 0 0 1 9.328-2.507l25.236 14.615-41.005-23.748c-3.266-1.891-4.385-6.08-2.5-9.356a6.818 6.818 0 0 1 9.328-2.507l67.019 38.813c3.266 1.891 4.385 6.08 2.5 9.356zm-13.657 23.727a6.818 6.818 0 0 1-9.328 2.507L57.791 64.526l29.74 17.223c3.266 1.891 4.385 6.08 2.499 9.356a6.818 6.818 0 0 1-9.328 2.507L46.01 73.521c-3.266-1.892-4.385-6.08-2.499-9.356a6.815 6.815 0 0 1 9.327-2.507l-15.769-9.133c-3.266-1.891-4.385-6.08-2.499-9.356a6.815 6.815 0 0 1 9.327-2.507l67.02 38.813c3.266 1.891 4.385 6.08 2.499 9.356zm-13.657 23.727a6.817 6.817 0 0 1-9.327 2.507l-67.02-38.813c-3.265-1.891-4.384-6.081-2.499-9.357a6.819 6.819 0 0 1 9.328-2.507l67.019 38.813c3.266 1.892 4.385 6.081 2.499 9.357z"/><path stroke="#fff" stroke-width="2" opacity=".149" d="M122.5 110a5.5 5.5 0 1 1 0 11 5.5 5.5 0 0 1 0-11z" filter="url(#a)" fill="none"/><path stroke="#fff" stroke-width="2" d="M122.5 110a5.5 5.5 0 1 1 0 11 5.5 5.5 0 0 1 0-11z" fill="none"/><path stroke="#fff" stroke-width="2" opacity=".149" d="M82.5 1a5.5 5.5 0 1 1 0 11 5.5 5.5 0 1 1 0-11z" filter="url(#b)" fill="none"/><path stroke="#fff" stroke-width="2" d="M82.5 1a5.5 5.5 0 1 1 0 11 5.5 5.5 0 1 1 0-11z" fill="none"/><path fill-rule="evenodd" opacity=".149" fill="#ff8400" d="M138.343 61.131a.708.708 0 0 0 .033.384c.056.137.145.26.256.336a.742.742 0 0 0 .715.075.735.735 0 0 0 .403-.397c.314-.72.233-1.522.526-2.194l.9-2.063a1.428 1.428 0 0 1 1.874-.74l.437.185c1.116.473 1.855 1.611 2.957 2.049.291.124.61.117.854.021.312-.123.604-.398.688-.788a1.232 1.232 0 0 0-.061-.652 1.238 1.238 0 0 0-.408-.514c-1.059-.733-2.586-.329-3.799-.843l-.388-.164a1.395 1.395 0 0 1-.745-1.851l.733-1.679c.376-.864 1.322-1.515 1.469-2.448a.7.7 0 0 0-.033-.384.736.736 0 0 0-.256-.335.742.742 0 0 0-.715-.076.74.74 0 0 0-.403.398c-.377.863-.393 1.823-.783 2.653l-.691 1.583a1.43 1.43 0 0 1-1.875.74l-1.843-.781c-.825-.35-1.454-1.213-2.362-1.371a.749.749 0 0 0-.73.288.731.731 0 0 0 .324 1.103l2.717.755 1.601.678a1.394 1.394 0 0 1 .745 1.851l-.984 2.255c-.279.706-1.044 1.207-1.156 1.926zM2.078 46.208a.693.693 0 0 0-.06.38.74.74 0 0 0 .167.388c.179.2.416.28.675.246a.736.736 0 0 0 .487-.289c.479-.623.593-1.421 1.04-2.002l1.37-1.786a1.43 1.43 0 0 1 1.998-.266l.38.285c.968.728 1.412 2.01 2.375 2.702a1.119 1.119 0 0 0 1.682-.373c.085-.198.129-.428.098-.647a1.255 1.255 0 0 0-.272-.598c-.852-.967-2.431-.942-3.484-1.734l-.337-.253a1.395 1.395 0 0 1-.277-1.976l1.116-1.453c.574-.747 1.648-1.151 2.017-2.02a.706.706 0 0 0 .059-.381.74.74 0 0 0-.167-.388.74.74 0 0 0-.675-.245.731.731 0 0 0-.487.288c-.574.748-.821 1.675-1.4 2.386l-1.052 1.37a1.43 1.43 0 0 1-1.998.266l-1.601-1.202c-.716-.539-1.118-1.528-1.962-1.9a.747.747 0 0 0-.777.103.717.717 0 0 0-.246.667.728.728 0 0 0 .294.482l2.455 1.387 1.39 1.045c.632.475.755 1.353.277 1.976l-1.499 1.951c-.441.618-1.304.919-1.586 1.591z"/><path fill-rule="evenodd" d="M88.342 79.274c-.049-.006-7.183.205-8.244-7.438 1.178-.823 2.265-1.89 3.222-3.185 1.862-2.519 3.061-5.68 3.489-9.099.146-.132.268-.298.35-.492a15.015 15.015 0 0 0 1.165-5.844c0-7.816-5.898-14.174-13.148-14.174-1.896 0-3.735.436-5.473 1.298a9.72 9.72 0 0 0-1.935.347c-2.977.86-5.4 3.067-6.822 6.215-1.381 3.056-1.653 6.653-.767 10.13.188.734.426 1.456.709 2.146.076.186.19.345.327.476.692 5.336 3.232 9.757 6.695 12.171-1.064 7.656-8.196 7.444-8.245 7.449-5.13.174-9.251 4.398-9.251 9.568v10.763c0 .77.624 1.395 1.395 1.395h44.389c.771 0 1.396-.625 1.396-1.395V88.842c0-5.171-4.121-9.395-9.252-9.568zM68.543 43.368a6.894 6.894 0 0 1 1.599-.26c.205-.009.405-.063.586-.158 1.413-.742 2.91-1.118 4.448-1.118 5.711 0 10.357 5.107 10.357 11.384l-.014.563a6.08 6.08 0 0 0-4.346-1.823h-9.511a2.602 2.602 0 0 1-2.413-1.63 1.703 1.703 0 0 0-1.691-1.066 1.713 1.713 0 0 0-1.552 1.28 12.934 12.934 0 0 1-3.158 5.649c-1.403-5.772 1.129-11.503 5.695-12.821zm-1.214 24.128c-1.816-2.218-3.005-5.212-3.382-8.491a15.792 15.792 0 0 0 4.059-5.687 5.356 5.356 0 0 0 3.656 1.428h9.512c1.345 0 2.505.807 3.023 1.962l-.002.029c0 7.875-4.571 14.282-10.189 14.282-2.445 0-4.817-1.251-6.677-3.523zm3.207 5.699a10.166 10.166 0 0 0 6.937.007 10.922 10.922 0 0 0 4.059 6.578l-7.328 10.432c-.048.068-.115.103-.198.103s-.15-.035-.197-.103l-7.33-10.434a10.929 10.929 0 0 0 4.057-6.583zM94.803 98.21H53.205v-9.368a6.795 6.795 0 0 1 6.788-6.787c.051 0 2.297-.054 4.071-.86l7.46 10.62a3.035 3.035 0 0 0 4.964 0l7.459-10.619c2.023.86 4.016.86 4.067.86 3.743 0 6.789 3.044 6.789 6.786v9.368z"/><path fill="url(#c)" d="M88.342 79.274c-.049-.006-7.183.205-8.244-7.438 1.178-.823 2.265-1.89 3.222-3.185 1.862-2.519 3.061-5.68 3.489-9.099.146-.132.268-.298.35-.492a15.015 15.015 0 0 0 1.165-5.844c0-7.816-5.898-14.174-13.148-14.174-1.896 0-3.735.436-5.473 1.298a9.72 9.72 0 0 0-1.935.347c-2.977.86-5.4 3.067-6.822 6.215-1.381 3.056-1.653 6.653-.767 10.13.188.734.426 1.456.709 2.146.076.186.19.345.327.476.692 5.336 3.232 9.757 6.695 12.171-1.064 7.656-8.196 7.444-8.245 7.449-5.13.174-9.251 4.398-9.251 9.568v10.763c0 .77.624 1.395 1.395 1.395h44.389c.771 0 1.396-.625 1.396-1.395V88.842c0-5.171-4.121-9.395-9.252-9.568zM68.543 43.368a6.894 6.894 0 0 1 1.599-.26c.205-.009.405-.063.586-.158 1.413-.742 2.91-1.118 4.448-1.118 5.711 0 10.357 5.107 10.357 11.384l-.014.563a6.08 6.08 0 0 0-4.346-1.823h-9.511a2.602 2.602 0 0 1-2.413-1.63 1.703 1.703 0 0 0-1.691-1.066 1.713 1.713 0 0 0-1.552 1.28 12.934 12.934 0 0 1-3.158 5.649c-1.403-5.772 1.129-11.503 5.695-12.821zm-1.214 24.128c-1.816-2.218-3.005-5.212-3.382-8.491a15.792 15.792 0 0 0 4.059-5.687 5.356 5.356 0 0 0 3.656 1.428h9.512c1.345 0 2.505.807 3.023 1.962l-.002.029c0 7.875-4.571 14.282-10.189 14.282-2.445 0-4.817-1.251-6.677-3.523zm3.207 5.699a10.166 10.166 0 0 0 6.937.007 10.922 10.922 0 0 0 4.059 6.578l-7.328 10.432c-.048.068-.115.103-.198.103s-.15-.035-.197-.103l-7.33-10.434a10.929 10.929 0 0 0 4.057-6.583zM94.803 98.21H53.205v-9.368a6.795 6.795 0 0 1 6.788-6.787c.051 0 2.297-.054 4.071-.86l7.46 10.62a3.035 3.035 0 0 0 4.964 0l7.459-10.619c2.023.86 4.016.86 4.067.86 3.743 0 6.789 3.044 6.789 6.786v9.368z"/></symbol><symbol id="ico_feature-5"><path fill-rule="evenodd" opacity=".149" fill="#ff8400" d="M127.073 65.104a6.817 6.817 0 0 1-9.328 2.507l-16.557-9.588c3.265 1.891 4.384 6.08 2.499 9.356a6.819 6.819 0 0 1-9.328 2.507L59.667 49.794c-3.266-1.891-4.385-6.08-2.5-9.356a6.817 6.817 0 0 1 9.328-2.507L90.95 52.093 50.726 28.798c-3.266-1.891-4.385-6.08-2.5-9.356a6.818 6.818 0 0 1 9.328-2.507l67.019 38.813c3.266 1.891 4.385 6.08 2.5 9.356zm-13.657 23.727a6.818 6.818 0 0 1-9.328 2.507L55.375 63.127l32.156 18.622c3.266 1.891 4.385 6.08 2.499 9.356a6.818 6.818 0 0 1-9.328 2.507L46.01 73.521c-3.266-1.892-4.385-6.08-2.499-9.356a6.815 6.815 0 0 1 9.327-2.507l-15.769-9.133c-3.266-1.891-4.385-6.08-2.499-9.356a6.815 6.815 0 0 1 9.327-2.507l67.02 38.813c3.266 1.891 4.385 6.08 2.499 9.356zm-13.657 23.727a6.817 6.817 0 0 1-9.327 2.507l-67.02-38.813c-3.265-1.891-4.384-6.081-2.499-9.357a6.819 6.819 0 0 1 9.328-2.507l67.019 38.813c3.266 1.892 4.385 6.081 2.499 9.357z"/><path stroke="#fff" stroke-width="2" opacity=".149" d="M122.5 110a5.5 5.5 0 1 1 0 11 5.5 5.5 0 0 1 0-11z" filter="url(#a)" fill="none"/><path stroke="#fff" stroke-width="2" d="M122.5 110a5.5 5.5 0 1 1 0 11 5.5 5.5 0 0 1 0-11z" fill="none"/><path stroke="#fff" stroke-width="2" opacity=".149" d="M82.5 1a5.5 5.5 0 1 1 0 11 5.5 5.5 0 0 1 0-11z" filter="url(#b)" fill="none"/><path stroke="#fff" stroke-width="2" d="M82.5 1a5.5 5.5 0 1 1 0 11 5.5 5.5 0 0 1 0-11z" fill="none"/><path fill-rule="evenodd" opacity=".149" fill="#ff8400" d="M138.343 61.131a.708.708 0 0 0 .033.384c.055.137.145.26.256.336a.741.741 0 0 0 .715.075.735.735 0 0 0 .403-.397c.314-.72.233-1.522.526-2.194l.9-2.063a1.43 1.43 0 0 1 1.875-.74l.436.185c1.116.473 1.855 1.611 2.957 2.049.291.124.61.117.853.021.313-.123.605-.398.689-.788a1.232 1.232 0 0 0-.061-.652 1.246 1.246 0 0 0-.408-.514c-1.059-.733-2.586-.329-3.799-.843l-.388-.164a1.395 1.395 0 0 1-.745-1.851l.733-1.679c.376-.864 1.321-1.515 1.469-2.448a.709.709 0 0 0-.033-.384.736.736 0 0 0-.256-.335.74.74 0 0 0-.714-.076.739.739 0 0 0-.404.398c-.377.863-.393 1.823-.783 2.653l-.691 1.583a1.43 1.43 0 0 1-1.875.74l-1.843-.781c-.825-.35-1.454-1.213-2.363-1.371a.747.747 0 0 0-.729.288.731.731 0 0 0 .324 1.103l2.717.755 1.601.678a1.394 1.394 0 0 1 .745 1.851l-.984 2.255c-.279.706-1.044 1.207-1.156 1.926zM2.078 46.208a.693.693 0 0 0-.06.38.74.74 0 0 0 .167.388c.179.2.416.28.675.246a.736.736 0 0 0 .487-.289c.479-.623.593-1.421 1.04-2.002l1.37-1.786a1.432 1.432 0 0 1 1.999-.266l.379.285c.968.728 1.412 2.01 2.375 2.702a1.119 1.119 0 0 0 1.682-.373c.085-.198.129-.428.098-.647a1.255 1.255 0 0 0-.272-.598c-.852-.967-2.431-.942-3.484-1.734l-.337-.253a1.395 1.395 0 0 1-.277-1.976l1.116-1.453c.574-.747 1.648-1.151 2.017-2.02a.706.706 0 0 0 .059-.381.74.74 0 0 0-.167-.388.74.74 0 0 0-.675-.245.731.731 0 0 0-.487.288c-.574.748-.821 1.675-1.4 2.386l-1.052 1.37a1.43 1.43 0 0 1-1.998.266l-1.601-1.202c-.716-.539-1.118-1.528-1.962-1.9a.748.748 0 0 0-.777.103.717.717 0 0 0-.246.667.728.728 0 0 0 .294.482l2.455 1.387 1.39 1.045c.632.475.755 1.353.277 1.976l-1.499 1.951c-.441.618-1.303.919-1.586 1.591z"/><path fill-rule="evenodd" d="M102.521 58.325L73.69 87.314a1.483 1.483 0 0 1-.655.384l-9.391 2.62-.374.05h-7.626c-.822 0-1.488-.67-1.488-1.496 0-.827.666-1.497 1.488-1.497h6.494l2.299-8.323c.068-.249.2-.475.381-.658l.024-.024h-9.198c-.822 0-1.488-.67-1.488-1.496 0-.827.666-1.496 1.488-1.496h12.174l8.956-9.006h-21.13c-.822 0-1.488-.67-1.488-1.496s.666-1.496 1.488-1.496H79.75l13.899-13.975a5.023 5.023 0 0 1 7.121 0l1.751 1.761a5.088 5.088 0 0 1 0 7.159zM66.622 82.324l-1.215 4.398 4.374-1.221-3.159-3.177zm25.152-26.801L67.975 79.452l4.662 4.688 23.8-23.929-4.663-4.688zm8.642-2.242l-1.751-1.76a2.054 2.054 0 0 0-2.912 0l-1.875 1.885 4.663 4.689 1.875-1.886a2.08 2.08 0 0 0 0-2.928zm-9.35-4.781c-.822 0-1.488-.67-1.488-1.496v-4.722a.278.278 0 0 0-.277-.279H59.309v9.124c0 1.803-1.459 3.271-3.253 3.271h-9.074v43.33c0 .154.125.28.278.28h42.041a.279.279 0 0 0 .277-.28V74.883c0-.826.666-1.496 1.488-1.496s1.488.67 1.488 1.496v22.845c0 1.804-1.459 3.272-3.253 3.272H47.26c-1.794 0-3.254-1.468-3.254-3.272V52.901c0-.396.157-.777.436-1.058l12.327-12.395c.279-.28.657-.438 1.052-.438h31.48c1.794 0 3.253 1.468 3.253 3.272v4.722c0 .826-.666 1.496-1.488 1.496zm-34.733-4.381l-7.246 7.286h6.969a.278.278 0 0 0 .277-.278v-7.008z"/><path fill="url(#c)" d="M102.521 58.325L73.69 87.314a1.483 1.483 0 0 1-.655.384l-9.391 2.62-.374.05h-7.626c-.822 0-1.488-.67-1.488-1.496 0-.827.666-1.497 1.488-1.497h6.494l2.299-8.323c.068-.249.2-.475.381-.658l.024-.024h-9.198c-.822 0-1.488-.67-1.488-1.496 0-.827.666-1.496 1.488-1.496h12.174l8.956-9.006h-21.13c-.822 0-1.488-.67-1.488-1.496s.666-1.496 1.488-1.496H79.75l13.899-13.975a5.023 5.023 0 0 1 7.121 0l1.751 1.761a5.088 5.088 0 0 1 0 7.159zM66.622 82.324l-1.215 4.398 4.374-1.221-3.159-3.177zm25.152-26.801L67.975 79.452l4.662 4.688 23.8-23.929-4.663-4.688zm8.642-2.242l-1.751-1.76a2.054 2.054 0 0 0-2.912 0l-1.875 1.885 4.663 4.689 1.875-1.886a2.08 2.08 0 0 0 0-2.928zm-9.35-4.781c-.822 0-1.488-.67-1.488-1.496v-4.722a.278.278 0 0 0-.277-.279H59.309v9.124c0 1.803-1.459 3.271-3.253 3.271h-9.074v43.33c0 .154.125.28.278.28h42.041a.279.279 0 0 0 .277-.28V74.883c0-.826.666-1.496 1.488-1.496s1.488.67 1.488 1.496v22.845c0 1.804-1.459 3.272-3.253 3.272H47.26c-1.794 0-3.254-1.468-3.254-3.272V52.901c0-.396.157-.777.436-1.058l12.327-12.395c.279-.28.657-.438 1.052-.438h31.48c1.794 0 3.253 1.468 3.253 3.272v4.722c0 .826-.666 1.496-1.488 1.496zm-34.733-4.381l-7.246 7.286h6.969a.278.278 0 0 0 .277-.278v-7.008z"/></symbol><symbol id="ico_feature-6"><path fill-rule="evenodd" opacity=".149" fill="#ff8400" d="M127.073 65.104a6.817 6.817 0 0 1-9.328 2.507l-16.557-9.589c3.265 1.892 4.384 6.081 2.499 9.357a6.819 6.819 0 0 1-9.328 2.507L59.667 49.794c-3.266-1.891-4.385-6.08-2.5-9.356a6.817 6.817 0 0 1 9.328-2.507l25.236 14.615-41.005-23.748c-3.266-1.891-4.385-6.08-2.5-9.356a6.818 6.818 0 0 1 9.328-2.507l67.019 38.813c3.266 1.891 4.385 6.08 2.5 9.356zm-13.657 23.727a6.818 6.818 0 0 1-9.328 2.507L57.791 64.526l29.74 17.223c3.266 1.891 4.385 6.08 2.499 9.356a6.818 6.818 0 0 1-9.328 2.507L46.01 73.521c-3.266-1.892-4.385-6.08-2.499-9.356a6.815 6.815 0 0 1 9.327-2.507l-15.769-9.133c-3.266-1.891-4.385-6.08-2.499-9.356a6.815 6.815 0 0 1 9.327-2.507l67.02 38.813c3.266 1.891 4.385 6.08 2.499 9.356zm-13.657 23.727a6.817 6.817 0 0 1-9.327 2.507L23.413 76.252c-3.266-1.891-4.385-6.081-2.5-9.357a6.819 6.819 0 0 1 9.328-2.507l67.019 38.813c3.266 1.892 4.385 6.081 2.499 9.357z"/><path stroke="#fff" stroke-width="2" opacity=".149" d="M122.5 110a5.5 5.5 0 1 1 0 11 5.5 5.5 0 0 1 0-11z" filter="url(#a)" fill="none"/><path stroke="#fff" stroke-width="2" d="M122.5 110a5.5 5.5 0 1 1 0 11 5.5 5.5 0 0 1 0-11z" fill="none"/><path stroke="#fff" stroke-width="2" opacity=".149" d="M82.5 1a5.5 5.5 0 1 1 0 11 5.5 5.5 0 0 1 0-11z" filter="url(#b)" fill="none"/><path stroke="#fff" stroke-width="2" d="M82.5 1a5.5 5.5 0 1 1 0 11 5.5 5.5 0 0 1 0-11z" fill="none"/><path fill-rule="evenodd" opacity=".149" fill="#ff8400" d="M138.343 61.131a.708.708 0 0 0 .033.384c.056.137.145.26.256.336a.742.742 0 0 0 .715.075.735.735 0 0 0 .403-.397c.314-.72.233-1.522.526-2.194l.9-2.063a1.43 1.43 0 0 1 1.875-.74l.436.185c1.116.473 1.855 1.611 2.957 2.049.291.124.61.117.853.021.313-.123.605-.398.689-.788a1.232 1.232 0 0 0-.061-.652 1.246 1.246 0 0 0-.408-.514c-1.059-.733-2.586-.329-3.799-.843l-.388-.164a1.395 1.395 0 0 1-.745-1.851l.733-1.679c.376-.864 1.321-1.515 1.469-2.448a.7.7 0 0 0-.033-.384.743.743 0 0 0-.256-.335.74.74 0 0 0-.714-.076.739.739 0 0 0-.404.398c-.377.863-.393 1.823-.783 2.653l-.691 1.583a1.43 1.43 0 0 1-1.875.74l-1.843-.781c-.825-.35-1.454-1.213-2.363-1.371a.748.748 0 0 0-.729.288.731.731 0 0 0 .324 1.103l2.717.755 1.601.678a1.394 1.394 0 0 1 .745 1.851l-.984 2.255c-.279.706-1.044 1.207-1.156 1.926zM2.078 46.208a.693.693 0 0 0-.06.38.74.74 0 0 0 .167.388c.179.2.416.28.675.246a.736.736 0 0 0 .487-.289c.479-.623.593-1.421 1.039-2.002l1.371-1.786a1.432 1.432 0 0 1 1.999-.266l.379.285c.968.728 1.412 2.01 2.375 2.702a1.119 1.119 0 0 0 1.682-.373c.085-.198.129-.428.098-.647a1.245 1.245 0 0 0-.272-.598c-.852-.967-2.431-.942-3.484-1.734l-.337-.253a1.395 1.395 0 0 1-.277-1.976l1.116-1.453c.574-.747 1.648-1.151 2.017-2.02a.706.706 0 0 0 .059-.381.74.74 0 0 0-.167-.388.74.74 0 0 0-.675-.245.731.731 0 0 0-.487.288c-.574.748-.821 1.675-1.4 2.386l-1.052 1.37a1.43 1.43 0 0 1-1.998.266l-1.601-1.202c-.716-.539-1.118-1.528-1.962-1.9a.748.748 0 0 0-.777.103.717.717 0 0 0-.246.667.728.728 0 0 0 .294.482l2.455 1.387 1.39 1.045c.632.475.755 1.353.277 1.976l-1.499 1.951c-.441.618-1.303.919-1.586 1.591z"/><path fill-rule="evenodd" d="M103.418 98.924l-58.778.081h-.002a1.59 1.59 0 0 1-1.588-1.587l-.047-34.459.002-.028c.008-.496.245-.982.684-1.285l8.918-6.171v-6.544c0-.877.711-1.589 1.588-1.589h10.166l8.744-6.05a1.583 1.583 0 0 1 1.808.003l8.688 6.047h10.211a1.59 1.59 0 0 1 1.588 1.589v6.622l8.875 6.177c.317.22.529.536.624.882a.918.918 0 0 1 .057.316l.048 34.404a1.59 1.59 0 0 1-1.586 1.592zm-4.737-3.172L74.027 76.606 49.285 95.82l49.396-.068zM52.607 59.339l-5.224 3.616 5.224 3.615v-7.231zm-6.425 6.652l.039 28.184 19.176-14.89-19.215-13.294zm27.823-21.457l-4.057 2.808h8.091l-4.034-2.808zm18.219 5.987H55.783v18.246l12.246 8.473 5.025-3.902a1.586 1.586 0 0 1 1.925-.015l.021.015 4.989 3.875 12.235-8.516V50.521zm3.175 8.904v7.061l5.074-3.531-5.074-3.53zm6.386 6.489l-19.167 13.34 19.206 14.915-.039-28.255zm-40.119.821c0-.878.711-1.589 1.588-1.589h21.499c.877 0 1.587.711 1.587 1.589s-.71 1.59-1.587 1.59H63.254a1.59 1.59 0 0 1-1.588-1.59zm23.087-6.676H63.254a1.59 1.59 0 0 1 0-3.179h21.499c.877 0 1.587.711 1.587 1.589s-.71 1.59-1.587 1.59z"/><path fill="url(#c)" d="M103.418 98.924l-58.778.081h-.002a1.59 1.59 0 0 1-1.588-1.587l-.047-34.459.002-.028c.008-.496.245-.982.684-1.285l8.918-6.171v-6.544c0-.877.711-1.589 1.588-1.589h10.166l8.744-6.05a1.583 1.583 0 0 1 1.808.003l8.688 6.047h10.211a1.59 1.59 0 0 1 1.588 1.589v6.622l8.875 6.177c.317.22.529.536.624.882a.918.918 0 0 1 .057.316l.048 34.404a1.59 1.59 0 0 1-1.586 1.592zm-4.737-3.172L74.027 76.606 49.285 95.82l49.396-.068zM52.607 59.339l-5.224 3.616 5.224 3.615v-7.231zm-6.425 6.652l.039 28.184 19.176-14.89-19.215-13.294zm27.823-21.457l-4.057 2.808h8.091l-4.034-2.808zm18.219 5.987H55.783v18.246l12.246 8.473 5.025-3.902a1.586 1.586 0 0 1 1.925-.015l.021.015 4.989 3.875 12.235-8.516V50.521zm3.175 8.904v7.061l5.074-3.531-5.074-3.53zm6.386 6.489l-19.167 13.34 19.206 14.915-.039-28.255zm-40.119.821c0-.878.711-1.589 1.588-1.589h21.499c.877 0 1.587.711 1.587 1.589s-.71 1.59-1.587 1.59H63.254a1.59 1.59 0 0 1-1.588-1.59zm23.087-6.676H63.254a1.59 1.59 0 0 1 0-3.179h21.499c.877 0 1.587.711 1.587 1.589s-.71 1.59-1.587 1.59z"/></symbol><symbol id="ico_next"><path fill-rule="evenodd" fill="#d8d8d8" d="M40.534 37c-.815 0-1.475-.675-1.475-1.508V1.508c0-.833.66-1.5 1.475-1.508C41.34 0 42 .675 42 1.508v33.984c0 .833-.652 1.508-1.466 1.508zm-16.867-8.066a1.451 1.451 0 0 1-2.075 0 1.513 1.513 0 0 1 .008-2.122l6.654-6.804H1.475C.66 20.008 0 19.333 0 18.5c0-.824.66-1.5 1.475-1.5h26.771l-6.654-6.803a1.532 1.532 0 0 1 0-2.131 1.452 1.452 0 0 1 2.083 0l9.158 9.364a1.532 1.532 0 0 1 0 2.131l-9.166 9.373z"/></symbol><symbol id="ico_prev"><path fill-rule="evenodd" fill="#d8d8d8" d="M40.525 20.008H13.746l6.654 6.804c.583.587.583 1.534.008 2.122a1.451 1.451 0 0 1-2.075 0l-9.167-9.373a1.534 1.534 0 0 1 0-2.131l9.159-9.364a1.452 1.452 0 0 1 2.083 0 1.532 1.532 0 0 1 0 2.131L13.754 17h26.771c.815 0 1.475.676 1.475 1.5 0 .833-.66 1.508-1.475 1.508zM1.466 37C.652 37 0 36.325 0 35.492V1.508C0 .675.66 0 1.466 0a1.497 1.497 0 0 1 1.475 1.508v33.984c0 .833-.66 1.508-1.475 1.508z"/></symbol><symbol id="ico_star"><path fill-rule="evenodd" fill="#ffa800" d="M18.158 7.704c.365-.34.494-.84.337-1.305a1.31 1.31 0 0 0-1.076-.866l-4.496-.625a.583.583 0 0 1-.442-.307L10.471.707a1.332 1.332 0 0 0-1.194-.709 1.33 1.33 0 0 0-1.194.709l-2.01 3.894a.59.59 0 0 1-.443.308l-4.496.625a1.31 1.31 0 0 0-1.076.865c-.157.465-.028.965.337 1.306l3.253 3.03c.139.13.203.316.17.498l-.768 4.279c-.068.377.035.744.291 1.033.396.45 1.089.587 1.641.309l4.021-2.021a.629.629 0 0 1 .547 0l4.021 2.021a1.374 1.374 0 0 0 1.642-.309c.255-.289.358-.656.29-1.033l-.768-4.279a.55.55 0 0 1 .17-.498l3.253-3.031z"/></symbol><symbol id="img_promo-phone"><path stroke="#fff" stroke-width="3" d="M36.5 1.5h227c19.33 0 35 15.67 35 35v518c0 19.33-15.67 35-35 35h-227c-19.33 0-35-15.67-35-35v-518c0-19.33 15.67-35 35-35z" fill="none"/><path fill-rule="evenodd" fill-opacity=".251" fill="#fff" d="M20.5 68.5h260a5 5 0 0 1 5 5v429a5 5 0 0 1-5 5h-260a5 5 0 0 1-5-5v-429a5 5 0 0 1 5-5z"/><path stroke="#fff" stroke-width="3" d="M150.5 522.5c12.702 0 23 10.297 23 23 0 12.702-10.298 23-23 23-12.703 0-23-10.298-23-23 0-12.703 10.297-23 23-23z" fill="none"/><path fill-rule="evenodd" fill-opacity=".549" fill="#fff" d="M115 41.5h70a2.5 2.5 0 1 1 0 5h-70a2.5 2.5 0 0 1 0-5z"/><path fill-rule="evenodd" fill="#fff" d="M150 22.5a4.5 4.5 0 1 1 0 9 4.5 4.5 0 0 1 0-9z"/></symbol><symbol id="logo_apple"><path fill-rule="evenodd" d="M24.978 22.732a17.162 17.162 0 0 1-2.106 4.371c-1.208 1.788-2.577 3.815-4.807 3.857-1.042.019-1.748-.291-2.432-.592-.695-.304-1.414-.619-2.54-.619-1.183 0-1.938.325-2.667.64-.65.281-1.322.571-2.253.609L8.06 31c-1.979 0-3.424-1.878-4.852-3.97-2.86-4.185-4.504-11.086-1.918-15.634 1.36-2.397 3.827-3.911 6.438-3.95l.079-.001c1.123 0 2.184.427 3.119.803.7.282 1.305.524 1.77.524.415 0 1.016-.24 1.711-.517 1.008-.403 2.262-.905 3.572-.905.168 0 .335.009.497.025 1.114.049 3.884.453 5.691 3.132a.253.253 0 0 1 .038.193.254.254 0 0 1-.11.164l-.024.015c-.525.329-3.143 2.145-3.109 5.574.036 4.22 3.481 5.769 3.873 5.932l.019.008a.256.256 0 0 1 .133.311l-.009.028zM12.763 7.547l-.324-.013a.252.252 0 0 1-.229-.22c-.248-1.9.693-3.786 1.657-4.917C15 1.052 16.897.065 18.478 0a.253.253 0 0 1 .259.226c.184 1.694-.422 3.585-1.621 5.059-1.139 1.395-2.807 2.262-4.353 2.262z"/></symbol><symbol id="logo_facebook"><path fill-rule="evenodd" d="M16.36.006l-4.078-.007c-4.581 0-7.541 2.995-7.541 7.63v3.518h-4.1a.636.636 0 0 0-.641.632v5.097c0 .349.287.632.641.632h4.1v12.86c0 .349.287.632.641.632h5.349a.637.637 0 0 0 .641-.632v-12.86h4.793a.636.636 0 0 0 .641-.632l.002-5.097a.626.626 0 0 0-.187-.447.647.647 0 0 0-.454-.185h-4.795V8.164c0-1.433.347-2.16 2.24-2.16l2.747-.001A.637.637 0 0 0 17 5.371V.638a.636.636 0 0 0-.64-.632z"/></symbol><symbol id="logo_google-play"><path fill-rule="evenodd" d="M26.707 13.29L3.84.334A2.58 2.58 0 0 0 2.568 0l-.026.001-.177.008-.079.008-.137.019-.05.007.001.001a2.556 2.556 0 0 0-2.1 2.5v25.911c0 .907.487 1.745 1.279 2.201.258.148.536.248.821.3l-.001.001.045.006.147.02.074.007.174.009.029.001c.439 0 .878-.111 1.272-.335l22.867-12.956A2.537 2.537 0 0 0 28 15.501v-.003a2.54 2.54 0 0 0-1.293-2.208zm-9.043-2.573l-2.274 2.956-5.784-7.521 8.058 4.565zm7.934 5.07L9.606 24.848l10.013-13.021 5.979 3.388a.328.328 0 0 1 0 .572z"/></symbol><symbol id="logo_google-plus"><path fill-rule="evenodd" d="M37.07 16.306v2.958h-2.512v-2.958h-2.93v-2.537h2.93V10.81h2.512v2.959H40v2.537h-2.93zM15.349 30.999C6.872 30.999 0 24.06 0 15.5S6.872 0 15.349 0c4.182 0 7.972 1.69 10.741 4.429l-3.467 3.805a10.146 10.146 0 0 0-7.274-3.067C9.697 5.167 5.116 9.793 5.116 15.5c0 5.706 4.581 10.333 10.233 10.333 4.582 0 8.459-3.041 9.763-7.233h-8.74v-4.822h14.326V18.6c-1.423 7.074-7.924 12.399-15.349 12.399z"/></symbol><symbol id="logo_instagram"><path fill-rule="evenodd" d="M22.445 31H8.555C3.838 31 0 27.162 0 22.445V8.555C0 3.838 3.838 0 8.555 0h13.89C27.162 0 31 3.838 31 8.555v13.89C31 27.162 27.162 31 22.445 31zm5.804-8.555V8.555a5.811 5.811 0 0 0-5.804-5.805H8.555A5.811 5.811 0 0 0 2.75 8.555v13.89a5.81 5.81 0 0 0 5.805 5.804h13.89a5.81 5.81 0 0 0 5.805-5.804h-.001zM23.823 9.214c-.53 0-1.051-.216-1.425-.59a2.034 2.034 0 0 1-.592-1.427 2.023 2.023 0 0 1 2.017-2.017 2.02 2.02 0 0 1 2.017 2.017c0 .53-.215 1.051-.591 1.427-.376.374-.894.59-1.426.59zM15.5 23.488c-4.405 0-7.988-3.583-7.988-7.988 0-4.404 3.583-7.988 7.988-7.988 4.404 0 7.988 3.584 7.988 7.988 0 4.405-3.584 7.988-7.988 7.988zm0-13.226a5.244 5.244 0 0 0-5.238 5.238 5.243 5.243 0 0 0 5.238 5.237c2.888 0 5.237-2.349 5.237-5.237s-2.349-5.238-5.237-5.238z"/></symbol></svg>