<svg xmlns="http://www.w3.org/2000/svg" viewBox="0 0 491.858 491.858" enable-background="new 0 0 491.858 491.858"><path d="M377.472 224.957h-176.153v58.718h107.471c-16.032 51.048-63.714 88.077-120.055 88.077-69.492 0-125.823-56.335-125.823-125.824 0-69.492 56.333-125.823 125.823-125.823 34.994 0 66.645 14.289 89.452 37.346l42.622-46.328c-34.04-33.355-80.65-53.929-132.074-53.929-104.235-.001-188.735 84.499-188.735 188.734s84.5 188.737 188.736 188.737c91.307 0 171.248-64.844 188.737-150.989v-58.718l-.001-.001zM491.858 224.857h-36.031v-36.031h-30.886v36.031h-36.031v30.883h36.031v36.032h30.886v-36.032h36.031z"/></svg>